<svg width="121" height="76" viewBox="0 0 121 76" fill="none" xmlns="http://www.w3.org/2000/svg">
<path d="M2.30048 47.6538H22.0529V54H32.6034V47.6538H37.2837V39.0865H32.6034V13.3846H18.6418L2.30048 39.0865V47.6538ZM22.2909 39.0865H13.1683V38.7692L21.9736 24.8077H22.2909V39.0865ZM59.5993 55.1106C70.6456 55.1304 77.5074 47.2175 77.5272 33.7716C77.547 20.405 70.6456 12.8293 59.5993 12.8293C48.5332 12.8293 41.7111 20.3654 41.6714 33.7716C41.6318 47.1581 48.5332 55.0907 59.5993 55.1106ZM59.5993 46.1466C55.7916 46.1466 53.0548 42.3191 53.0945 33.7716C53.1342 25.4225 55.7916 21.7139 59.5993 21.7139C63.407 21.7139 66.0843 25.4225 66.1041 33.7716C66.1239 42.3191 63.407 46.1466 59.5993 46.1466ZM82.3066 47.6538H102.059V54H112.61V47.6538H117.29V39.0865H112.61V13.3846H98.648L82.3066 39.0865V47.6538ZM102.297 39.0865H93.1744V38.7692L101.98 24.8077H102.297V39.0865Z" fill="#272626"/>
<path d="M10.8027 70.6844C10.8027 70.6844 18.2726 63.9615 30.9713 63.9615C43.6701 63.9615 51.1399 70.6844 51.1399 70.6844" stroke="#272626" stroke-width="8.96382" stroke-linecap="round"/>
</svg>
