<svg xmlns="http://www.w3.org/2000/svg" viewBox="0 0 621.94 300"><defs><style>.cls-1{fill:#f5f5f5;}.cls-2{fill:#e6e8ec;}.cls-3{fill:#f5db7d;}.cls-4{fill:#74eacf;}.cls-5{fill:#121212;}.cls-6{fill:#e25c59;}.cls-7{fill:#f46363;}.cls-8{fill:#efc53f;}.cls-9{fill:#fb9390;}.cls-10{fill:#bdc6c4;}.cls-11{fill:#fa7167;}.cls-12{fill:#ef7f7f;}.cls-13{fill:#eee;}.cls-14{fill:#04459d;}.cls-15{fill:#043b77;}.cls-16{fill:#f7a491;}.cls-17{fill:#1a1a1a;}.cls-18{fill:#262626;}.cls-19{fill:#0b0754;}.cls-20{fill:#dde8fe;}.cls-21{fill:#f7f8f9;}.cls-22{fill:#4c4c51;}.cls-23{fill:#bababa;}.cls-24{fill:#fff;}.cls-25{fill:#f7f7f7;}</style></defs><g id="Layer_2" data-name="Layer 2"><g id="Layer_1-2" data-name="Layer 1"><path class="cls-1" d="M299.4,192.51a32,32,0,0,0-13.14,12.17c-4.69,8.33-5.66,19.87-5.66,19.87l14.45.15S286.22,213.75,299.4,192.51Z"/><path class="cls-2" d="M612.8,298.43a1.52,1.52,0,0,0-1.47-1.57H1.78a1.58,1.58,0,1,0,0,3.14H611.33a1.52,1.52,0,0,0,1.47-1.57Z"/><path class="cls-3" d="M303.65,198.23,300.58,191l-7.71-1.59a1.08,1.08,0,0,1-.49-1.87l5.95-5.16-.88-7.83a1.08,1.08,0,0,1,1.63-1.05l6.75,4.07L313,174.3a1.08,1.08,0,0,1,1.5,1.23l-1.78,7.67L318,189a1.08,1.08,0,0,1-.71,1.81l-7.84.68-3.89,6.84A1.08,1.08,0,0,1,303.65,198.23Z"/><path class="cls-3" d="M256.29,145.85,259,141.2l-2.27-4.9a.74.74,0,0,1,.83-1l5.27,1.18,4-3.67a.75.75,0,0,1,1.25.47l.5,5.38,4.72,2.63a.75.75,0,0,1-.07,1.33l-5,2.14-1,5.3a.74.74,0,0,1-1.29.34l-3.57-4.05L257,147A.73.73,0,0,1,256.29,145.85Z"/><polygon class="cls-4" points="360.85 158.23 354.47 156.47 352.44 162.3 346.08 160.84 343.46 166.18 338.52 165.87 338.36 168.37 344.97 168.78 347.45 163.73 354.07 165.24 356.07 159.51 361.85 161.1 360.85 158.23"/><polygon class="cls-4" points="336.48 187.38 339 192.09 344.43 191.78 346.88 197.26 352.57 195.15 355.62 201.22 361.1 199.92 364.99 205.28 362.96 206.75 360.05 202.74 354.27 204.11 351.34 198.28 345.56 200.42 342.85 194.38 337.54 194.68 335.21 190.31 331.76 191.24 331.11 188.82 336.48 187.38"/><polygon class="cls-4" points="272.51 204.08 268.5 204.49 267.13 198.1 261.19 197.97 259.38 193.37 257.05 194.28 259.47 200.44 265.1 200.56 266.52 207.21 272.56 206.59 272.51 204.08"/><path class="cls-5" d="M346,240.74c-1.85.36-9.27,10.3-9.27,10.3l-.26.69s13.42-1.5,13.9-2.07C351.66,248.11,347.51,240.44,346,240.74Zm-9.18,10.51c2.45-3.13,8-7.7,9.24-8.67a15.26,15.26,0,0,1,2.91,5.8C347.41,248.7,340.72,250.78,336.8,251.25Z"/><path class="cls-5" d="M328,242.43c-3.65-2.38-4.65-2.36-5.72-1.76s-5,6.23-3.23,8,15.66,3,15.66,3l.31-.85S331.66,244.81,328,242.43ZM321.48,248c-.81-.81,1.2-4.18,2.12-4.9.24-.13,9.59,5.82,10.9,7.86C329.28,250.43,322.23,248.71,321.48,248Z"/><rect class="cls-5" x="333.42" y="249.19" width="3.59" height="5.11" rx="1.4"/><path class="cls-6" d="M364.49,251.77l-63.61-.19a2.76,2.76,0,0,0-2.74,3.17l1,6.49h3.19l1.92,32.66a3.31,3.31,0,0,0,3.3,3.12h50.77l2.11-35.9h3Z"/><path class="cls-7" d="M359.39,297h-39l-2.08-44.57h46.3l-1.94,41.47A3.29,3.29,0,0,1,359.39,297Z"/><path class="cls-7" d="M366.55,261.13l-50.26.14-1.15-9.67,49.24.18a2.77,2.77,0,0,1,2.74,3Z"/><polygon class="cls-6" points="316.29 261.27 364.23 261.13 317.81 263.67 316.29 261.27"/><rect class="cls-5" x="335.15" y="251.67" width="1.33" height="9.55"/><rect class="cls-5" x="339.02" y="261.18" width="1.67" height="35.9"/><rect class="cls-3" x="256.75" y="230.24" width="51.58" height="66.78"/><rect class="cls-8" x="263.06" y="230.24" width="1.87" height="66.78"/><rect class="cls-8" x="268.58" y="230.24" width="1.87" height="66.78"/><rect class="cls-8" x="274.09" y="230.24" width="1.87" height="66.78"/><rect class="cls-8" x="279.6" y="230.24" width="1.87" height="66.78"/><rect class="cls-8" x="285.12" y="230.24" width="1.87" height="66.78"/><rect class="cls-8" x="290.63" y="230.24" width="1.87" height="66.78"/><rect class="cls-8" x="296.14" y="230.24" width="1.87" height="66.78"/><rect class="cls-8" x="301.66" y="230.24" width="1.87" height="66.78"/><rect class="cls-8" x="256.75" y="230.23" width="51.57" height="2.75"/><path class="cls-8" d="M214.46,209.42c1.64,1.69,17.07,2.65,17.07,2.65l.9-.2s-10.71-13-11.64-13.09C218.28,198.46,213.1,208,214.46,209.42Zm17.23,2.41c-4.94-.42-13.51-3.13-15.34-3.72a18.87,18.87,0,0,1,4.06-7C221.8,202.5,228.52,208.06,231.69,211.83Z"/><path class="cls-8" d="M228.49,227c0,5.43.7,6.46,2.06,7.16s9.9.95,10.53-2.07-7.54-18.39-7.54-18.39l-1.1.25S228.48,221.59,228.49,227Zm10.3,3c-.29,1.4-5.18,1.59-6.56,1.12-.29-.16-.46-14,.77-16.73C236,220.24,239,228.76,238.79,230Z"/><rect class="cls-8" x="230.1" y="210.9" width="6.37" height="4.48" rx="1.75" transform="translate(-78.6 162.37) rotate(-33.17)"/><rect class="cls-8" x="207.19" y="201.08" width="59.76" height="11.92" transform="matrix(-0.49, -0.87, 0.87, -0.49, 171.25, 514.84)"/><path class="cls-3" d="M243.82,98.83l-4.75,1.46L237.58,105a.48.48,0,0,1-.86.14l-2.86-4.07-5,.05a.49.49,0,0,1-.39-.78l3-4-1.58-4.72a.49.49,0,0,1,.62-.61l4.7,1.61,4-3a.48.48,0,0,1,.77.4l-.08,5L244,98A.48.48,0,0,1,243.82,98.83Z"/><path class="cls-3" d="M404.82,34.75l-4.75,1.46L398.58,41a.49.49,0,0,1-.86.13L394.86,37l-5,0a.49.49,0,0,1-.39-.78l3-4L390.9,27.6a.48.48,0,0,1,.62-.61l4.7,1.61,4-3a.48.48,0,0,1,.77.4l-.08,5,4,2.88A.48.48,0,0,1,404.82,34.75Z"/><path class="cls-3" d="M288.36,50.45,291,54.8a.67.67,0,0,0,1.19-.1L294,50,299,48.83a.65.65,0,0,0,.27-1.15l-3.91-3.23.44-5.06a.67.67,0,0,0-1-.62l-4.28,2.73-4.68-2a.67.67,0,0,0-.9.78l1.28,4.91-3.33,3.84a.66.66,0,0,0,.46,1.09Z"/><path class="cls-9" d="M176.23,236a64.43,64.43,0,0,1-7,8.68c-.21.2-1.64.66-1.87.87-2,6.33.57,11.72,3.34,16,.46-3.43.78-8.12,1.31-8.7a68.45,68.45,0,0,1,9.51-9.77C178.42,241.29,178.06,239,176.23,236Z"/><path class="cls-10" d="M169,244.77c-2.26.13-6.55,1.55-6.53,2S165,266,167.9,267.64c1.78,1,2.11-1.92,2.76-6.16C167.89,257.25,167.76,245.85,169,244.77Z"/><path class="cls-9" d="M129.28,227.25a85.8,85.8,0,0,1-10,5.17c-.28.09-1.77-.11-2.06,0-4.51,4.88-4.47,10.85-3.78,15.86,1.88-2.91,4.17-7,4.9-7.32A91,91,0,0,1,131,236.7C128.94,233.84,129.67,230.72,129.28,227.25Z"/><path class="cls-9" d="M181.11,101.5s7.17-13.47,8.23-18.3,4.73-29.13,4.42-30.69-6.12-5.34-5.4-6.67,6.24-1.33,7.51-1.21a11.37,11.37,0,0,1,4.9,1.75c1.09.89-1.23,30-1.92,36.29s-11.19,26.81-11.19,26.81Z"/><path class="cls-9" d="M148.93,121s-14.6,23.38-17.14,28-12,16.29-12.53,16.86-10.53,0-10.24,1.21,4.9,0,5,1.38-7.94,10.06-7.14,10.41c1.51.65,5.12-5.13,5.76-4.69s-4.32,5.69-3.51,6.81,4.24-5.41,4.89-5.33-2.42,6.57-1,6.63c.76,0,2.58-5.84,3.3-5.32s0,5.22.91,5.18.06-4,1.42-6.12,1.26-4.3,4.38-7,15.21-11,19.59-18.26,14.11-23.38,14.11-23.38Z"/><path class="cls-7" d="M183.81,155.74l-25.35,8.17s13.94,23.71,16.7,28.43,14.62,16.4,14.64,19.45c0,2.16-11.18,16.49-17.92,25.23,1.52,2.84,5.69,6.48,8.33,8.1,11.23-10.65,27.61-27.44,27.91-32.94C208.56,204.14,183.81,155.74,183.81,155.74Z"/><path class="cls-10" d="M119.06,232.44c-2.11-.84-6.57-1.38-6.74-1s-6,18.44-4,21.19c1.18,1.65,2.72-.84,5.11-4.4C112.74,243.25,117.65,232.56,119.06,232.44Z"/><path class="cls-7" d="M178.61,170.37c.32-1.56,2.41-6.15,3.49-9.8a20.14,20.14,0,0,0,.48-9.32h0l-18.65-.87-.71,1.39a11.38,11.38,0,0,1-3.2,3.83c-2.79,2.11-7.69,6.74-7.54,13.18.2,9,6.61,42,4.48,43.21-3.84,2.22-19.87,10-29.44,14.82.13,3.49,1.11,8.45,2.92,11.46,7.58-2.91,34.25-14.71,39.21-17.6C171.89,219.36,178.06,173,178.61,170.37Z"/><path class="cls-11" d="M133.56,65.45c1.48,3.9-.86,6.82-2.49,10.66-1.09,2.58,1.32,6.69,4,8.58,6.89,4.78,8.51,4.9,8,11.4-1.2,15.66,17.52,9,20.53,8.49s5.28-.37,6.72-1.36c4.33-3,8.4-12,7.64-19.6s-9.8-5-11.87-8.47,4.18-7.82-1.14-13.64c-15.29-16.71-31.24-5.5-31.81.89A6.8,6.8,0,0,0,133.56,65.45Z"/><path class="cls-3" d="M186.07,120.74s5.2-12.36,6-14.41c0,0-7.27-6.47-11.6-6,0,0-5.62,8.83-8.94,9.14s-15,.82-17,2-10.71,14.27-10.71,14.27,7.79,7.81,10.92,7.79c0,0,2.13-5.27,2.86-4.31s3.6,21.44,5.06,23,17.66,6.95,22.37,5.94c0,0,2.54-19.71,2.4-31.84A24.94,24.94,0,0,0,186.07,120.74Z"/><path class="cls-9" d="M163.35,103.7s1.84,6.08,1.85,8.55,2,10.23,7.16,9.72-.05-10.12-.79-12.47A92.83,92.83,0,0,1,170,99.75Z"/><path class="cls-12" d="M170.45,103.46c-.29-2-.49-3.71-.49-3.71l-6.61,4s.38,1.24.79,2.83A6.08,6.08,0,0,0,170.45,103.46Z"/><path class="cls-9" d="M159,86.85a8.62,8.62,0,0,0-3.16,5.08c-.65,3.32,1.32,11.5,8.44,12.79s9.43-5.59,7.48-10.58S166.07,83,159,86.85Z"/><path class="cls-9" d="M172.45,92.06c0,1.39-.64,2.52-1.45,2.53s-1.48-1.12-1.49-2.52.65-2.53,1.46-2.53S172.45,90.66,172.45,92.06Z"/><path class="cls-9" d="M159,99c.94,1.12,1.08,2.55.32,3.18s-2.13.24-3.07-.89-1.08-2.54-.32-3.17S158,97.88,159,99Z"/><path class="cls-12" d="M193.35,45.9a2.67,2.67,0,0,0-.43.32l-.8.72h0a6.2,6.2,0,0,1,3.08.89S195,46.9,193.35,45.9Z"/><path class="cls-13" d="M205.72,4.78c-1.71.34-8.55,9.49-8.55,9.49l-.24.63s12.37-1.37,12.81-1.9C211,11.58,207.12,4.5,205.72,4.78Zm-8.46,9.69c2.26-2.89,7.4-7.1,8.51-8a14.06,14.06,0,0,1,2.68,5.35C207,12.12,200.87,14,197.26,14.47Z"/><path class="cls-13" d="M191.38,2.9c-2.66-3.61-4.08-3-5.09-2.57s-4.76,5.11-3.59,7.55,12.72,7.23,12.72,7.23l.42-.9S194.05,6.51,191.38,2.9Zm-7.32,4.32C183.48,6,186,2.35,186.94,1.7a1.79,1.79,0,0,1,.62-.19c.22,0,1,.17,2.61,2.29a46.55,46.55,0,0,1,5.11,10.43C190.63,12.16,184.62,8.25,184.06,7.22Z"/><path class="cls-13" d="M195.95,13h.55a1,1,0,0,1,1,1v1.63a1,1,0,0,1-1,1h-.55a1,1,0,0,1-1-1V14a1,1,0,0,1,1-1Z"/><path class="cls-14" d="M214.94,46.94H179.81a3.6,3.6,0,0,1-3.59-3.37l-1.84-28.22h45.74l-1.91,29.39C218.12,46,216.69,46.94,214.94,46.94Z"/><path class="cls-15" d="M222,21.51l-49.66.09-.53-3.19a3.14,3.14,0,0,1,3.11-3.65l44.94.12c1.59,0,2.85,1,2.7,2.13Z"/><rect class="cls-13" x="196.17" y="14.8" width="0.95" height="6.77"/><rect class="cls-13" x="197.13" y="21.54" width="1.18" height="25.44"/><path class="cls-9" d="M192.58,48.73,192.14,47a10.54,10.54,0,0,1-3.22-.51l-1.23-.54a.76.76,0,0,0-1,.41h0a.76.76,0,0,0,.23.89s3.34,2.75,4.52,3.59c.58.42,2.41,1.53,2.41,1.53l1.07-2Z"/><ellipse class="cls-4" cx="240.39" cy="165.98" rx="2.26" ry="2.07"/><path class="cls-4" d="M333.49,213.29A2.46,2.46,0,1,1,331,211,2.36,2.36,0,0,1,333.49,213.29Z"/><path class="cls-16" d="M106.58,56.78a6.36,6.36,0,0,0,1-2,2.16,2.16,0,0,0,0-1,4.49,4.49,0,0,0,.86-1.1,2.65,2.65,0,0,0-.46-1.58c-.64-1-3-2.77-3.92-2.51S105.16,52,105.16,52s-1.56-.94-1.92.12S106.58,56.78,106.58,56.78Z"/><path class="cls-16" d="M96.82,57.14l1.54-2.57s2.91-1.55,2.34-2.51c-1-1.6-5.16,1.6-5.16,1.6A6.73,6.73,0,0,0,96.82,57.14Z"/><path d="M470.57,135.64C469,128.4,463,123.2,455.89,123.37a15.76,15.76,0,0,0-8.51-8.38c-7.34-2.86-18-1.48-18.86,6.68-3.7,5-4.9,12.75-1,17.62-2.59,7.08,3.19,15.25,12,16.41,2.35,5.62,7.73,9.85,13.64,10.08a37.7,37.7,0,0,1,3.94.19c-.43-.15,8.29,9,18.21-1.33C485.49,154.09,481.57,138.71,470.57,135.64Z"/><path class="cls-9" d="M422.19,140.4S398,128.73,397.9,128.26c-.17-.69,8.16-9.82,12.53-10.57,3.34-.57,7.44-3.83,7.44-3.83s-4.45-5.14-8.7-4.29-4,4.32-4,4.32-11.38,6.13-18,12.15c-6.28,5.71,27,21.43,27,21.43Z"/><path class="cls-9" d="M409.46,265.16a70.09,70.09,0,0,0,3,11.08c.11.27,1.22,1.29,1.35,1.57-.6,6.81-4.94,10.86-9,13.74.88-3.43,2.85-7.37,2.6-8.13a97.58,97.58,0,0,0-5.34-13.75C405.49,269.29,406.7,267.22,409.46,265.16Z"/><path class="cls-17" d="M424.25,184.11l21.17,16.08S434.94,210.28,431,214s-26,18.11-26.3,19c-.25.64,1.95,8.7,7,34.51-2.23,2.28-7.16,4.53-10.08,5.26-7.34-14-13.08-42.74-13.08-46C388.55,221.49,424.25,184.11,424.25,184.11Z"/><path class="cls-9" d="M483.63,216.19c-.69.68-5.28,9.63-7,14.42-2.56-1.61-4.11-3.53-7-4.62,2.26-3.26,6.66-11.12,7-13,.86-4.44,1.86-5.09,1.86-5.09s14.88,5,15.87,6.44S486.41,213.48,483.63,216.19Z"/><path class="cls-17" d="M476.47,214c-1.15,0,.1-5.22.37-6.42a2.26,2.26,0,0,1,1.27-1.8c.53-.13,17.06,5.46,19.85,7.47a3,3,0,0,1,.58.66c1.53,2.85-12.09,3.4-14.05,2.15C482.74,214.94,481.66,214,476.47,214Z"/><path class="cls-18" d="M419.73,188.86s19.95-7.86,20.21-7c2.06,6.65,9.37,4.51,13.19,16.23,1.6,4.9,2,17.86,3.05,27.47.74,6.6,1.77,11.89,1.77,11.89s4.62-5.44,13.32-15.23c.67-.76,7.69,4.52,7.69,4.52-13.85,27.45-24,31.56-26.15,30.59-14.31-6.57-26-55.73-26-55.73C425.18,198.41,419.73,188.86,419.73,188.86Z"/><path class="cls-9" d="M450.52,142.34s23.81,0,28.91-.32c4.62-.27,22.92.2,23.64.12s5.44-8.1,6.23-7.24-2.63,4-1.57,4.78,12.41-1,12.26-.16c-.28,1.57-6.91,1.37-6.9,2.13s6.94-.43,7.41.83-6.67.52-7,1.08,6.62,1.59,5.92,2.76c-.39.64-6.12-1.06-6.09-.19s4.21,2.84,3.7,3.53-3.29-2.12-5.71-2.16-4.17-1.3-8-.24c-1.92.53-16.52,2.31-28.86,3.37-12.65,1.08-23,1.42-23,1.42Z"/><path class="cls-3" d="M415.2,163.51a82.66,82.66,0,0,1,.61-12.37c-1.16-4-8.21-4.38-9.09-6,0,0,3.11-10,7.35-10,0,0,10,3.79,13.32,5.54a9.07,9.07,0,0,0,1.68.5c3.24,0,14.55-.37,16.66.26l-1.2,17.48c-.61,1-1.6,22.16-2.85,23.82s-19.2,8.11-22.22,6.17C419.35,188.79,415.84,171.24,415.2,163.51Z"/><path class="cls-3" d="M439.84,141.81c2.08-1,17.32-1,17.32-1s2.11,10.51.41,13c0,0-13.5,2-13.12,3.12Z"/><path class="cls-9" d="M437.35,134s-2.45,5.67-2.73,8-3,9.67-8,8.61,1.17-9.77,2.13-12a89.87,89.87,0,0,0,2.64-9.25Z"/><path class="cls-12" d="M430.52,133c.5-1.93.88-3.54.88-3.54l6,4.55s-.5,1.16-1.07,2.65A5.92,5.92,0,0,1,430.52,133Z"/><path class="cls-9" d="M445.2,120.21a8.45,8.45,0,0,1,1.38,5.66c-.41,3.26-4.73,10.22-11.69,9.24s-7-8-3.69-12.05S439.89,114.48,445.2,120.21Z"/><path class="cls-9" d="M431.23,120.94c-.43,1.28-.18,2.53.57,2.78s1.71-.59,2.14-1.87.17-2.54-.58-2.79S431.66,119.65,431.23,120.94Z"/><path class="cls-17" d="M412.55,276.4c.43-1.07,4.73,2.35,5.75,3a2.25,2.25,0,0,1,1.2,1.85c-.07.53-11,14-14.24,15.9a1.92,1.92,0,0,1-1.13.11c-1.78-.69,1.12-11.74,3.46-13.92C409.1,282,410.63,281.22,412.55,276.4Z"/><path d="M444.64,119.51s-2.58,8.77-.58,11.45-.76,5.85-.76,5.85,6.24-7.42,5.35-11.1A12.84,12.84,0,0,0,444.64,119.51Z"/><path class="cls-9" d="M442,131.44c-1.21.75-1.77,2-1.27,2.84s1.9.87,3.11.11,1.77-2,1.26-2.83S443.16,130.69,442,131.44Z"/><path class="cls-11" d="M428.15,110.42l.46,1.27a1.79,1.79,0,0,1-.62,2l-1.12.83a1.77,1.77,0,0,1-2.32-.17l-1-1Z"/><path class="cls-19" d="M421.88,112.43l-1.85-.5-1.28.68s-8.31,3.7-9.95,3.71-2.92-3-2.52-3.56,5.78-1.92,5.78-1.92l3.35-3,.19-2.19Z"/><path class="cls-11" d="M422.55,98.18l5.87,10.38a2.12,2.12,0,0,1-.65,2.79l-3.54,2.45a2.14,2.14,0,0,1-2.79-.33l-7.81-8.71Z"/><path class="cls-11" d="M422.93,98l-9.29,7a1.79,1.79,0,0,1-2.3-.14L394.28,88.62l18.57-13.45,10.59,20.61A1.78,1.78,0,0,1,422.93,98Z"/><path class="cls-19" d="M401,78.26c-5.27,3.59-8.51,8-7.24,9.89s6.58.47,11.85-3.12,8.52-8,7.24-9.89S406.23,74.67,401,78.26Z"/><path class="cls-20" d="M395.25,87.38c1.49.35,5.31-.8,9.46-3.62,5.19-3.53,7.14-7,6.83-7.76h0a1.1,1.1,0,0,0-.26-.09c-1.49-.36-5.31.79-9.46,3.62-5.19,3.53-7.13,7-6.83,7.76h0A1.1,1.1,0,0,0,395.25,87.38Z"/><path class="cls-9" d="M407.66,110.19l2.2.82a3.39,3.39,0,0,1,1.77,1.89c.32,1.24,1.91.95,1.47-.35a13,13,0,0,0-.89-2.1,24.61,24.61,0,0,0,2,2.47c1,.11,1.19-1.43-.58-3.17S407.66,110.19,407.66,110.19Z"/><path class="cls-9" d="M415.08,111.12s3.77,1.54,3,2.49-3,2-3.08,1.47,1.48-1.19.48-2.23C415.21,112.56,413.82,111.12,415.08,111.12Z"/><path class="cls-9" d="M544.11,256.62s8.79,6.33,10.17,8.22c2,2.72-14.88,7.81-13,4.63.42-.74,1.64-3.2,1.69-3.45.28-1.29-3.3-4.79-3.3-4.79Z"/><path class="cls-21" d="M536.67,274.79l6-8.43s3.72-.86,7.55-5.16a14,14,0,0,1,5.55,4.15,98.67,98.67,0,0,1-10.15,9.15,28.18,28.18,0,0,1-8.69,4.93C531.86,281.14,536.67,274.79,536.67,274.79Z"/><path class="cls-9" d="M617.53,141.18s-1.08.95-1.46,1.25-1.87,1.26-1.87,1.26-5.12,2.91-5.3,2.53a2.57,2.57,0,0,1,.09-1.78c.25-.29,1-.59,1.24-.89a.94.94,0,0,0,0-1.2c-.33-.32-2.08.63-2.08.63a6.52,6.52,0,0,0-2,1.74c-2.06,3.3-1.44,3.5-1.71,3.91s-7.52,3.76-7.52,3.76l-22.66,9.43h0a6.12,6.12,0,0,0,.65,2.79c.51,3.07,1.42,3.28,2.12,6.24,3.3-1.67,26.13-14.25,28.45-15.56,0,0,3.48-.59,5.65-1a19.12,19.12,0,0,0,4.66-2,20.27,20.27,0,0,0,4.17-2.53c1.84-1.43-.54-.89-.54-.89s-3.87,2-4,1.73,2.1-1.25,4.16-2.81l1.52-1.17c1.25-1,1-2-.43-1.17a15.18,15.18,0,0,0-1.92,1.22,13.59,13.59,0,0,1-1.86,1A17.88,17.88,0,0,1,615,148.7c0-.08-.31-.1.24-.54s2.3-1.37,3.21-2.22c.51-.49,1.65-1.43,1.65-1.43a14.18,14.18,0,0,0,1.39-1.87c-.38-.62-1.71.3-2.33,1.05a10.89,10.89,0,0,0-1.8,1.31s-2.82,1.58-3,1.19c-.09-.16,1.53-1.33,2.94-2.72s2.44-2.79,2.23-3.08C619.14,139.9,617.53,141.18,617.53,141.18Z"/><path class="cls-6" d="M557.55,191.52l-1.39,6.87-34.94,31.78,25,25.3-6.75,6.9s-36.93-27.12-38.27-30.67c-2-5.47,26.48-41.71,26.48-41.71Z"/><path class="cls-9" d="M582,274.9s8.78,6.34,10.17,8.23c2,2.72-14.89,7.81-13,4.62.42-.73,1.63-3.2,1.69-3.44.28-1.3-3.3-4.79-3.3-4.79Z"/><path class="cls-21" d="M574.58,293.11l6-8.43s4-.71,7.79-5a12.9,12.9,0,0,1,5.31,4,98.67,98.67,0,0,1-10.15,9.15,28.18,28.18,0,0,1-8.69,4.93C569.77,299.45,574.58,293.11,574.58,293.11Z"/><path class="cls-11" d="M556.35,194.7l-1.57,43.36,29.54,36.22-6.92,6.38S543.11,251.23,539.34,243c-2.33-5.08-10.19-51-10.19-51Z"/><path class="cls-21" d="M528.17,191.15c2.85-6.42,2.52-52.39,13.57-63.16,3.89.66,6.67,1,7.32,1.2.58,4.74,1.21,22.11,1.6,38,.26,10.61,0,21.74,1.3,27.6C552.77,198.47,525.58,197,528.17,191.15Z"/><path class="cls-7" d="M558.11,131.56c3.1.71,5.39,1.21,9.45,7.22,3.9,5.75,12.55,19.41,12.55,19.41l22.78-10.12L604,159.61s-25.77,13.39-29.4,12.18-13.86-16.15-14.62-17.16c-.18-.23.86,16,.86,18.55s4.94,25.12,4.94,25.12-12.54,3.09-15-2.52c-7.5-17.18-1.75-66.61-1.75-66.61S555.87,131.05,558.11,131.56Z"/><path class="cls-9" d="M510.7,82.32c.84-.92,1-2.88,1-4.12l.21-1.68c-.41-.11-8.08-.18-10.36.06a4.3,4.3,0,0,0,0,1.75c.58,1.81,4.55,13.55,4.55,13.55l6.51-.73S510.21,84.19,510.7,82.32Z"/><path class="cls-7" d="M539.18,130.68s-4.49,12.78-8.18,10.94-24.45-23-24.66-24-1.64-27-1.64-27L512.91,89l4.72,21.27s15.19,14.51,18.27,16A5.68,5.68,0,0,1,539.18,130.68Z"/><path class="cls-7" d="M527.06,194.22a13.84,13.84,0,0,1-5-.84s4.73-26.67,7.48-53.12c1.09-10.45,2.09-14.73,6.41-14,1.24.22,4.62,1.51,5.84,1.71-10.83,30.65-10.87,54.24-12.4,61.08C528.57,192.5,527.9,194.24,527.06,194.22Z"/><path class="cls-16" d="M542.89,123.36,541.75,128s-.26,4,1.61,4.4c2.26.43,5.61-2.94,5.61-2.94l1.95-13.06Z"/><path class="cls-9" d="M542.89,123.36,541.75,128s-.26,4,1.61,4.4c2.26.43,5.61-2.94,5.61-2.94l1.95-13.06Z"/><path class="cls-12" d="M550.9,116.45l-8,6.91-.85,3.46C545.1,126.09,549.47,122.72,550.9,116.45Z"/><path class="cls-9" d="M542.86,104.43a4.73,4.73,0,0,0-4.36,3.28,40.31,40.31,0,0,0-1.75,6.7c-.85,5,2,9.62,4.5,10s8.42-1.29,9.73-8.4c.56-3,1.3-7-1.21-9.15A11.32,11.32,0,0,0,542.86,104.43Z"/><path class="cls-22" d="M550.17,121.42s8.77-7.82,9.15-13.92-5.25-9.38-10.08-9.55a32.74,32.74,0,0,0-5.9.3c-4.83.61-8,2.75-6.86,6.71,1.48,5.32,11.51.83,13.56,2.48,1.69,1.37-1,4.64.59,5.89s.76.78.25,3A39.74,39.74,0,0,0,550.17,121.42Z"/><path class="cls-9" d="M553.55,114.34c-.22,1.46-1.11,2.54-2,2.41s-1.43-1.42-1.21-2.88,1.11-2.55,2-2.42S553.77,112.88,553.55,114.34Z"/><path class="cls-12" d="M509.94,77.23a9,9,0,0,0-2.37,2.88s-4-1.86-3.95-2.62c0-1,4,.32,4,.32Z"/><path class="cls-14" d="M567.56,47.56,502.94,80.83a7.09,7.09,0,0,1-9.54-3l-15.19-29.5a7.09,7.09,0,0,1,3.06-9.54L545.89,5.47a7.09,7.09,0,0,1,9.54,3.06L570.61,38A7.09,7.09,0,0,1,567.56,47.56Z"/><path class="cls-9" d="M511,74.22l.93,2.29-2.14,1.11s.55-1.09.35-1.38C509.05,74.61,510,73,511,74.22Z"/><path class="cls-11" d="M318.05,103.58a7.39,7.39,0,0,1,6.32.17,5.7,5.7,0,0,1,2.59,7.78c-1.61,3.27-6.38,5.74-15.48,5.45-5.8-7-6.77-12.29-5.16-15.57a5.69,5.69,0,0,1,7.73-2.72A7.35,7.35,0,0,1,318.05,103.58Z"/><path class="cls-4" d="M292.17,92.49a74,74,0,0,0,7.34,4.64c.77.43,2,1.39,2.86,1a.93.93,0,0,0,.63-1.1c-.22-1-1.51-1.34-2.28-1.76-2.35-1.31-4.94-2.9-7.47-4.65a1.07,1.07,0,1,0-1.08,1.84Z"/><path class="cls-4" d="M328,120.32c1.11.64,2.23,1.26,3.36,1.89a11.7,11.7,0,0,0,3.46,1.69.92.92,0,0,0,.89-1.53,11.62,11.62,0,0,0-3.25-2.05c-1.13-.62-2.25-1.25-3.38-1.85a1.07,1.07,0,0,0-1.08,1.85Z"/><path class="cls-4" d="M294.32,113c2.73-1.58,4.85-1.35,6.67-1.52a.87.87,0,0,0,.23-1.69c-2.56-1-5.73,0-8,1.37a1.06,1.06,0,0,0,1.07,1.84Z"/><path class="cls-4" d="M304,126.13a9.31,9.31,0,0,1,2.44-3.06c.63-.52,3-1.62,1.88-2.7s-2.87.65-3.65,1.34a11.14,11.14,0,0,0-2.53,3.33c-.61,1.23,1.23,2.32,1.86,1.09Z"/><path class="cls-4" d="M317.41,124.39l1.11,2.41c.37.8.6,1.79,1.51,2.08a1,1,0,0,0,1.14-.64c.33-.82-.42-1.82-.76-2.55l-1.12-2.4a1.09,1.09,0,1,0-1.88,1.1Z"/><path class="cls-4" d="M314.19,92.38c.83-7.06.89-7.06.68-7.8a1,1,0,0,0-1.72-.23c-.39.71-.32.6-1.16,8a1.11,1.11,0,0,0,1.1,1.11,1.13,1.13,0,0,0,1.1-1.11Z"/><path class="cls-4" d="M324.46,98.05a16.49,16.49,0,0,0,2.45-2.49c.68-.85,1.83-2.07,1.32-3.21a.81.81,0,0,0-.72-.42c-1.1.1-1.65,1.47-2.28,2.25A18.91,18.91,0,0,1,323,96.55a1.07,1.07,0,0,0,0,1.5,1.09,1.09,0,0,0,1.51,0Z"/><path class="cls-4" d="M338.37,107.09a.94.94,0,0,0,0-1.32c-.6-.74-2-.55-2.9-.53a18.85,18.85,0,0,0-3,.32,1.07,1.07,0,1,0,.57,2.07C336.81,107.07,337.36,107.93,338.37,107.09Z"/><path class="cls-9" d="M108.42,53.1a54,54,0,0,1-1.85,7c-.43,1-2.32,4.8-2.32,4.8l-.88,10.36-7.76-1s2.63-7.47,1.74-9.71a23.25,23.25,0,0,1-1.09-6.39C96.41,55,108.42,53.1,108.42,53.1Z"/><path class="cls-9" d="M16.51,60.28A54.21,54.21,0,0,0,21,65.93c.79.73,4.07,3.45,4.07,3.45l5,9.12,6.68-4.09s-5.43-5.77-5.53-8.18A23,23,0,0,0,29.67,60C28.25,57.12,16.51,60.28,16.51,60.28Z"/><path class="cls-19" d="M74.42,91.11s-4-4.27-7.29.92a3.22,3.22,0,0,0-4.26,1.1s-4.53-1.36-5.63,5.4c0,0-2.33-.44-2.64,2.33a6.92,6.92,0,0,0,1.1,4.62s-1.31,1-.71,3.52a3.15,3.15,0,0,0,2.3,2.5s.48,3.64,2.06,4.74a5.16,5.16,0,0,0,3.74.57,2.43,2.43,0,0,0,2.41,1.8c1.85-.17,4.13-1.93,6.2-1.14s7.42,0,7.42,0,6-2.68,4.22-8.83a4.5,4.5,0,0,0,.4-6.29s2-5.36-2-8.52S74.42,91.11,74.42,91.11Z"/><path class="cls-9" d="M29.49,241.65s-7-.8-8.12-1.37-7,5-5.85,7.83c.66,1.58,2.73,1.37,2.73,1.37l1.67-1.63,8.84,1.85Z"/><path class="cls-9" d="M69.27,271s-3.67,6-4.67,6.78,1.58,8.47,4.61,8.61c1.71.07,2.4-1.89,2.4-1.89l-.77-2.2,5.42-7.23Z"/><path d="M64.82,277.57a48.32,48.32,0,0,0,3.26,3.76,37.92,37.92,0,0,0,3.39,2.73s2.15,3.91,2.74,5.27c1.31,3,2.78,6.42,2.57,8.12-.07.55-1.3,1.12-2.32.81C70.21,297,59.33,287,58,284.33,56.37,281.25,64.82,277.57,64.82,277.57Z"/><path class="cls-23" d="M95.87,186.51q-.6-1.65-1.14-3.09c-4.53,1-9.64,2.07-14.89,3.2l-.64,19.27c0-1.49,4,30.73,4,30.73S72.41,258,65.42,271.13c2.87,3.58,5.07,5.15,9.22,7.59,10.85-13,24.71-35.92,25.3-39.88C100.28,236.56,100.58,199.78,95.87,186.51Z"/><path class="cls-23" d="M55.48,192.08c1.23,13.36,3.27,33.58,3.64,40.39-8.64,1.24-29,7.38-32.85,7.37C24.84,243.07,24,247,25,250.2c.19.63,40.25,1.91,50.59-4.69,2.69-1.72,3.52-20.17,3.57-39.62l.64-19.27C71.08,188.48,63,190.31,55.48,192.08Z"/><path class="cls-24" d="M84.25,123.64l-9.83,1.48-9.39.14c-.17,0-7.88,37.61-9.75,51.76s-.43,16.66-.43,16.66,13.08,2.94,22.75,2.09c10.06-.89,21.37-6.32,21.37-6.32s-11.65-26.58-13.36-35.07S84.25,123.64,84.25,123.64Z"/><path class="cls-14" d="M104.46,71.16s-.87,34.84-1.93,37C101,111.27,90,133.51,90,133.51s8.27,34.61,11.75,46.56c.35,1.21,1.9,9,1.9,9.74,0,1.68-7.32,3.81-8.18,3.69s-7.17-33-11.24-49.15a46,46,0,0,0-7-15.22l-2.84-4,16.8-20.33s3.64-32.17,3.64-34.18C94.84,70.06,103.4,69.18,104.46,71.16Z"/><path class="cls-14" d="M65,125.26,48.2,99.88S37.28,73.21,37,72.22s-8.85.14-11.56-.12c-.88-.09,11.43,28,12.73,32.67,1.53,5.53,9.75,27.16,9.75,27.16s5.67,13,4.79,23c-1.47,16.63-4.39,40.58-3.68,41.3,4.41,2.77,18.28,2.67,19.35.95C80.22,178.1,65,125.26,65,125.26Z"/><path class="cls-9" d="M73.74,120l.73,5.43s1.64,7.83-.47,9.33-9-9.55-9-9.55l.73-13.76Z"/><path class="cls-12" d="M65.52,116a15.64,15.64,0,0,0,8.84,8.7L73.74,120l-8-8.55Z"/><path class="cls-19" d="M54.53,102.14c0,2.1,1.19,3.8,2.66,3.8s2.67-1.7,2.67-3.8-1.2-3.79-2.67-3.79S54.53,100.05,54.53,102.14Z"/><path class="cls-19" d="M62.52,94c0,1.2,1.45,2.18,3.24,2.18S69,95.19,69,94s-1.45-2.18-3.23-2.18S62.52,92.78,62.52,94Z"/><path class="cls-9" d="M70.63,97a7.26,7.26,0,0,1,9.5,5.78,54.31,54.31,0,0,1,.58,7c.12,6.34-3.16,12.51-6,12.51s-10.84-4.11-11.13-13.11C63.36,103.63,66.14,98.59,70.63,97Z"/><path class="cls-9" d="M65.66,109.9a2.11,2.11,0,1,1-2.07-2.53A2.34,2.34,0,0,1,65.66,109.9Z"/><path class="cls-19" d="M83.11,93.89c3,2.35,4,5.93,2.32,8S80,103.7,77,101.35s-4-5.94-2.33-8S80.13,91.53,83.11,93.89Z"/><path class="cls-19" d="M75.33,95.82c0,1-1.24,1.85-2.76,1.85s-2.76-.83-2.76-1.85S71,94,72.57,94,75.33,94.79,75.33,95.82Z"/><path class="cls-19" d="M83.55,103.7a2.36,2.36,0,1,1-2.36-2.39A2.38,2.38,0,0,1,83.55,103.7Z"/><path d="M21.68,240.38a45.26,45.26,0,0,0-2,4.55,39.49,39.49,0,0,0-1,4.22S16,252.76,15,253.87c-2.2,2.47-4.89,5.39-6.52,5.92-.52.17-2-.27-2-1.43,0-4.45,4.32-19,6.16-21.33C14.76,234.29,21.68,240.38,21.68,240.38Z"/><path class="cls-12" d="M18.23,62.41a8.89,8.89,0,0,0,4.5,2.66c2.46.35,4.62-2.19,4.62-2.19Z"/><path class="cls-12" d="M96.94,58.07l1.69,2.59s6.18.39,8.08-4.1Z"/><path class="cls-25" d="M99.07,59.14a118.22,118.22,0,0,0-73.48,4.43,7.23,7.23,0,0,1-9.31-3.7L3,29.15C1.41,25.59,4.1,20.8,9.11,18.82A162.4,162.4,0,0,1,110,12.73c5.21,1.36,8.46,5.79,7.31,9.52q-4.74,16.05-9.49,32.09A7.24,7.24,0,0,1,99.07,59.14Z"/><path class="cls-9" d="M26,64.48a6.56,6.56,0,0,0,2-4.24c0-.32-.86-3.19.24-3.38,1.83-.32,2.39,6.49,2.39,6.49A24.7,24.7,0,0,1,26,64.48Z"/><path class="cls-9" d="M18.72,62.76c1.27,0,2.6-.18,2.71-.64s-.48-.74-1.2-.86c.52-.08.89-.22.95-.45.13-.5-.5-.77-1.25-.91.36-.07.61-.19.66-.37.34-1.11-3.19-1.36-3.19-1.36s-1.94-.33-2.12.42a1.54,1.54,0,0,0,.4.81A.87.87,0,0,1,16,60.47l0,.07a.25.25,0,0,0,.11.22c.32.27.22,1.32.21,1.38a1.08,1.08,0,0,0,.38.64c1.06,1,7.4,6.2,8.48,6.59,1.3.48.22-3.46.22-3.46S19,63.89,18.72,62.76Z"/><path class="cls-9" d="M101.41,60.79a6.57,6.57,0,0,1-3.56-3.06c-.15-.28-.51-3.26-1.59-3-1.81.45.44,6.91.44,6.91A24.92,24.92,0,0,0,101.41,60.79Z"/><path class="cls-9" d="M107.41,56.25c-1.16.54-2.46.9-2.74.52s.14-.87.75-1.27c-.51.14-.9.15-1,0-.33-.41.15-.91.77-1.34-.36.08-.63.07-.75-.07-.77-.88,2.37-2.54,2.37-2.54s1.64-1.08,2.1-.47a1.41,1.41,0,0,1,0,.9c-.26.35.11.79.12.81a1.22,1.22,0,0,1,0,.61c-.19.38.33,1.3.36,1.35a1,1,0,0,1-.09.74c-.56,1.36-4.25,8.67-5.08,9.46-1,1-1.6-3.07-1.6-3.07S107.57,57.42,107.41,56.25Z"/><path class="cls-24" d="M510.82,47.48a4.09,4.09,0,0,0-4.85.63,5.35,5.35,0,0,0-.68-.11,4.74,4.74,0,0,0-1.63.19,6.62,6.62,0,0,0-1.65.74,5.26,5.26,0,0,0-2.28,2.74,4.91,4.91,0,0,0,.48,4,5.24,5.24,0,0,0,2.94,2.43,4.66,4.66,0,0,0,4.11-.74,3.91,3.91,0,0,0,1.22-1.48l.11-.26a4,4,0,0,0,4.3-2.36A4.19,4.19,0,0,0,510.82,47.48ZM508,55.73a4,4,0,0,1-4.21,1.12,4.61,4.61,0,0,1-2.58-2.12,5.8,5.8,0,0,1-.87-2.4,3.17,3.17,0,0,1,.41-2.06,3.11,3.11,0,0,1,2.67-1.47,4.35,4.35,0,0,1,1.78.32c0,.08-.09.17-.13.25a4.2,4.2,0,0,0,2.07,5.75,5.39,5.39,0,0,0,1,.38Zm3.26-2.19c-.65,1.34-1.62,2-2.62,1.89a1.93,1.93,0,0,1-.36-.06,2.35,2.35,0,0,1-.44-.17c-1.93-1-2.19-4-1.14-6.16.81-1.68,2.14-2.27,3.41-1.65C512.05,48.34,512.31,51.36,511.27,53.54Z"/><path class="cls-24" d="M524.59,45.94a2.88,2.88,0,0,1-1.26,1.2,3.14,3.14,0,0,1-2.42.21,3.63,3.63,0,0,1-2-1.65,4.59,4.59,0,0,1-.67-1.88,2.44,2.44,0,0,1,.33-1.61,2.42,2.42,0,0,1,2.1-1.16,3.52,3.52,0,0,1,1.7.38l.35-.92a4.17,4.17,0,0,0-.58-.09,4.07,4.07,0,0,0-1.29.15,5.46,5.46,0,0,0-1.31.58,4.21,4.21,0,0,0-1.79,2.15,3.83,3.83,0,0,0,.36,3.1,4.18,4.18,0,0,0,2.31,1.9,3.72,3.72,0,0,0,3.24-.59,3.07,3.07,0,0,0,1.1-1.51,3,3,0,0,0,.11-.73,2.14,2.14,0,0,0,0-.72v.17A2.58,2.58,0,0,1,524.59,45.94Z"/><path class="cls-24" d="M526.2,40A2.81,2.81,0,1,0,530,41.22,2.73,2.73,0,0,0,526.2,40Zm2.89,4.66c-1.26.65-3-.42-3.69-1.85-.57-1.1-.36-2.05.47-2.48,1.26-.65,3,.42,3.69,1.85C530.12,43.32,529.92,44.27,529.09,44.7Z"/><path class="cls-24" d="M537,40.69a.76.76,0,0,1-1-.35l-1.28-2.48c-.75-1.45-1.61-1.38-2.24-1.06a4.57,4.57,0,0,0-1.65,2,1.51,1.51,0,0,0-.9-.73l-.84,1.13,0,0,.15-.19A.48.48,0,0,1,530,39a1.6,1.6,0,0,1,.36.47l.33.64,0-.07,1.26,2.44a.74.74,0,0,1-.27,1v0l1.9-1h0a.76.76,0,0,1-.95-.36l-1.65-3.2a3.5,3.5,0,0,1,1.27-1.57c.52-.27,1.28-.32,1.85.78l1.32,2.56a.75.75,0,0,1-.27,1v0l1.9-1Z"/><path class="cls-24" d="M542.74,37.73a.76.76,0,0,1-1-.34L540.5,34.9c-.74-1.45-1.6-1.38-2.23-1.06a4.66,4.66,0,0,0-1.66,2,1.49,1.49,0,0,0-.89-.73l-.85,1.13,0,0,.16-.19a.47.47,0,0,1,.66-.07,1.72,1.72,0,0,1,.37.48l.33.64,0-.08,1.25,2.44a.74.74,0,0,1-.26,1h0l1.9-1v0a.75.75,0,0,1-1-.36L536.67,36a3.39,3.39,0,0,1,1.26-1.58c.53-.27,1.29-.32,1.86.78l1.32,2.57a.75.75,0,0,1-.28,1v0l1.91-1Z"/><path class="cls-24" d="M545.78,36c-1.26.65-2.86-.39-3.6-1.83-.56-1.09-.34-2,.49-2.46a2.46,2.46,0,0,1,2.29.12l.36-.95a3.51,3.51,0,0,0-2.37.5,2.81,2.81,0,1,0,2.61,5,2.78,2.78,0,0,0,1.55-2s0,0,0,0H547A2.51,2.51,0,0,1,545.78,36Z"/><path class="cls-24" d="M548.28,33l-1.48-2.88,1.19-.61.31-.82-1.75.9-.48-.94-.47,2.09.52-.27,1.4,2.71c.75,1.46,1.62,1.41,2.24,1.06a4.17,4.17,0,0,0,.8-1.1l0-.06a2.11,2.11,0,0,1-.45.58C549.57,33.94,548.86,34.08,548.28,33Z"/><path class="cls-14" d="M74.9,26.74C72.17,23,68,21.6,64.09,22.84a15.41,15.41,0,0,0-1.29-1,11,11,0,0,0-3.62-1.34A15.4,15.4,0,0,0,55,20.29a12.3,12.3,0,0,0-7.7,3.29A11.54,11.54,0,0,0,44,32.35a12.38,12.38,0,0,0,3.53,8.24,11,11,0,0,0,9.38,2.88A9.18,9.18,0,0,0,61,41.69c.19-.14.36-.29.52-.43a9.39,9.39,0,0,0,11.5-.3C77.73,37.41,78.41,31.47,74.9,26.74ZM60.17,40.94a9.48,9.48,0,0,1-10-2.18,10.94,10.94,0,0,1-3.1-7.2,13.68,13.68,0,0,1,.77-5.95,7.51,7.51,0,0,1,3.07-3.86,7.29,7.29,0,0,1,7.15-.2,10.28,10.28,0,0,1,3.37,2.59l-.53.38C56.21,28.07,55.53,34,59,38.75a11.87,11.87,0,0,0,1.77,1.91C60.6,40.76,60.39,40.85,60.17,40.94Zm9.15-1.07C66.53,42,63.81,42.31,61.81,41a4.28,4.28,0,0,1-.67-.52,5.64,5.64,0,0,1-.74-.81c-3-4.07-.3-10.64,4.25-14.09,3.49-2.64,6.9-2.46,8.88.22C76.54,29.87,73.84,36.44,69.32,39.87Z"/></g></g></svg>