<svg width="40" height="41" viewBox="0 0 40 41" fill="none" xmlns="http://www.w3.org/2000/svg">
<path fill-rule="evenodd" clip-rule="evenodd" d="M22.091 15.4097C22.4968 15.0351 23.1294 15.0604 23.504 15.4663L26.7348 18.9662C27.0884 19.3493 27.0884 19.9397 26.7348 20.3228L23.504 23.8228C23.1294 24.2286 22.4968 24.2539 22.091 23.8793C21.6851 23.5047 21.6598 22.8721 22.0344 22.4663L23.716 20.6445L14 20.6445C13.4477 20.6445 13 20.1968 13 19.6445C13 19.0922 13.4477 18.6445 14 18.6445L23.716 18.6445L22.0344 16.8228C21.6598 16.417 21.6851 15.7843 22.091 15.4097Z" fill="#605F5F"/>
<rect x="1" y="1.14453" width="38" height="38" rx="11" stroke="#E1E1E1" stroke-width="2"/>
</svg>
