<svg width="223" height="177" viewBox="0 0 223 177" fill="none" xmlns="http://www.w3.org/2000/svg">
<g clip-path="url(#clip0_2023_14047)">
<rect y="0.144531" width="223" height="176" rx="8" fill="#E1E1E1"/>
<g clip-path="url(#clip1_2023_14047)">
<rect opacity="0.1" x="73" y="37.1445" width="76" height="76" rx="37.0338" fill="#121212"/>
<path opacity="0.6" fill-rule="evenodd" clip-rule="evenodd" d="M116.057 83.0001C116.057 84.6074 117.36 85.9103 118.968 85.9103C120.575 85.9103 121.878 84.6074 121.878 83.0001C121.878 81.3928 120.575 80.0899 118.968 80.0899C117.36 80.0899 116.057 81.3928 116.057 83.0001ZM110.954 83.0001C110.954 87.4258 114.542 91.0136 118.968 91.0136C123.393 91.0136 126.981 87.4258 126.981 83.0001C126.981 78.5744 123.393 74.9866 118.968 74.9866C114.542 74.9866 110.954 78.5743 110.954 83.0001Z" fill="#838383"/>
<path fill-rule="evenodd" clip-rule="evenodd" d="M102.271 75.0622C102.271 78.6467 105.177 81.5525 108.762 81.5525C112.346 81.5525 115.252 78.6467 115.252 75.0622C115.252 71.4777 112.346 68.5719 108.762 68.5719C105.177 68.5719 102.271 71.4777 102.271 75.0622ZM96.439 75.0622C96.439 81.8678 101.956 87.3849 108.762 87.3849C115.567 87.3849 121.084 81.8678 121.084 75.0622C121.084 68.2566 115.567 62.7395 108.762 62.7395C101.956 62.7395 96.439 68.2566 96.439 75.0622Z" fill="#838383"/>
<ellipse cx="123.579" cy="62.2103" rx="3.40197" ry="3.40197" transform="rotate(90 123.579 62.2103)" fill="#838383"/>
</g>
<path d="M65.0028 129.417V138.145H63.7926L59.3565 131.744H59.2756V138.145H57.9588V129.417H59.1776L63.6179 135.826H63.6989V129.417H65.0028ZM69.5785 138.277C68.9648 138.277 68.4293 138.136 67.9719 137.855C67.5146 137.574 67.1594 137.18 66.9066 136.674C66.6538 136.169 66.5273 135.578 66.5273 134.902C66.5273 134.223 66.6538 133.629 66.9066 133.12C67.1594 132.612 67.5146 132.217 67.9719 131.936C68.4293 131.654 68.9648 131.514 69.5785 131.514C70.1921 131.514 70.7276 131.654 71.185 131.936C71.6424 132.217 71.9975 132.612 72.2504 133.12C72.5032 133.629 72.6296 134.223 72.6296 134.902C72.6296 135.578 72.5032 136.169 72.2504 136.674C71.9975 137.18 71.6424 137.574 71.185 137.855C70.7276 138.136 70.1921 138.277 69.5785 138.277ZM69.5827 137.207C69.9805 137.207 70.31 137.102 70.5714 136.892C70.8327 136.681 71.0259 136.402 71.1509 136.052C71.2788 135.703 71.3427 135.318 71.3427 134.897C71.3427 134.48 71.2788 134.096 71.1509 133.747C71.0259 133.395 70.8327 133.112 70.5714 132.899C70.31 132.686 69.9805 132.579 69.5827 132.579C69.1822 132.579 68.8498 132.686 68.5856 132.899C68.3242 133.112 68.1296 133.395 68.0018 133.747C67.8768 134.096 67.8143 134.48 67.8143 134.897C67.8143 135.318 67.8768 135.703 68.0018 136.052C68.1296 136.402 68.3242 136.681 68.5856 136.892C68.8498 137.102 69.1822 137.207 69.5827 137.207ZM77.2276 138.145V131.599H78.5018V138.145H77.2276ZM77.8711 130.589C77.6495 130.589 77.4592 130.515 77.3001 130.368C77.1438 130.217 77.0657 130.038 77.0657 129.831C77.0657 129.62 77.1438 129.441 77.3001 129.294C77.4592 129.143 77.6495 129.068 77.8711 129.068C78.0927 129.068 78.2816 129.143 78.4379 129.294C78.5969 129.441 78.6765 129.62 78.6765 129.831C78.6765 130.038 78.5969 130.217 78.4379 130.368C78.2816 130.515 78.0927 130.589 77.8711 130.589ZM80.2159 138.145V131.599H81.4389V132.664H81.5199C81.6563 132.304 81.8793 132.022 82.1889 131.821C82.4986 131.616 82.8693 131.514 83.3011 131.514C83.7386 131.514 84.1051 131.616 84.4006 131.821C84.6989 132.025 84.919 132.306 85.0611 132.664H85.1293C85.2855 132.315 85.5341 132.037 85.875 131.829C86.2159 131.619 86.6222 131.514 87.0938 131.514C87.6875 131.514 88.1719 131.7 88.5469 132.072C88.9247 132.444 89.1136 133.005 89.1136 133.755V138.145H87.8395V133.875C87.8395 133.431 87.7188 133.11 87.4773 132.912C87.2358 132.713 86.9474 132.613 86.6122 132.613C86.1974 132.613 85.875 132.741 85.6449 132.997C85.4148 133.25 85.2997 133.575 85.2997 133.973V138.145H84.0298V133.794C84.0298 133.439 83.919 133.153 83.6974 132.937C83.4759 132.721 83.1875 132.613 82.8324 132.613C82.5909 132.613 82.3679 132.677 82.1634 132.805C81.9616 132.93 81.7983 133.105 81.6733 133.329C81.5511 133.554 81.4901 133.814 81.4901 134.109V138.145H80.2159ZM92.7262 138.289C92.3114 138.289 91.9364 138.213 91.6012 138.059C91.266 137.903 91.0004 137.677 90.8043 137.382C90.6112 137.086 90.5146 136.724 90.5146 136.295C90.5146 135.926 90.5856 135.622 90.7276 135.383C90.8697 135.145 91.0614 134.956 91.3029 134.816C91.5444 134.677 91.8143 134.572 92.1126 134.501C92.4109 134.43 92.7148 134.376 93.0245 134.339C93.4165 134.294 93.7347 134.257 93.979 134.228C94.2234 134.197 94.4009 134.147 94.5117 134.079C94.6225 134.011 94.6779 133.9 94.6779 133.747V133.717C94.6779 133.345 94.5728 133.056 94.3626 132.852C94.1552 132.647 93.8455 132.545 93.4336 132.545C93.0046 132.545 92.6665 132.64 92.4194 132.831C92.1751 133.018 92.006 133.227 91.9123 133.457L90.7148 133.184C90.8569 132.787 91.0643 132.466 91.337 132.221C91.6126 131.974 91.9293 131.795 92.2873 131.684C92.6452 131.571 93.0217 131.514 93.4165 131.514C93.6779 131.514 93.9549 131.545 94.2475 131.608C94.543 131.667 94.8185 131.778 95.0742 131.94C95.3327 132.102 95.5444 132.333 95.7092 132.635C95.8739 132.933 95.9563 133.321 95.9563 133.798V138.145H94.712V137.25H94.6609C94.5785 137.414 94.4549 137.576 94.2901 137.735C94.1254 137.895 93.9137 138.027 93.6552 138.132C93.3967 138.237 93.087 138.289 92.7262 138.289ZM93.0032 137.267C93.3555 137.267 93.6566 137.197 93.9066 137.058C94.1594 136.919 94.3512 136.737 94.4819 136.512C94.6154 136.285 94.6822 136.042 94.6822 135.784V134.94C94.6367 134.985 94.5487 135.028 94.418 135.068C94.2901 135.105 94.1438 135.137 93.979 135.166C93.8143 135.191 93.6538 135.216 93.4975 135.238C93.3413 135.258 93.2106 135.275 93.1055 135.289C92.8583 135.321 92.6325 135.373 92.4279 135.447C92.2262 135.521 92.0643 135.627 91.9421 135.767C91.8228 135.903 91.7631 136.085 91.7631 136.312C91.7631 136.627 91.8796 136.866 92.1126 137.028C92.3455 137.187 92.6424 137.267 93.0032 137.267ZM100.398 140.735C99.8778 140.735 99.4304 140.667 99.0554 140.531C98.6832 140.395 98.3793 140.214 98.1435 139.99C97.9077 139.765 97.7315 139.52 97.6151 139.252L98.7102 138.801C98.7869 138.926 98.8892 139.058 99.017 139.197C99.1477 139.339 99.3239 139.46 99.5455 139.559C99.7699 139.659 100.058 139.708 100.411 139.708C100.893 139.708 101.293 139.591 101.608 139.355C101.923 139.122 102.081 138.75 102.081 138.238V136.951H102C101.923 137.091 101.813 137.245 101.668 137.416C101.526 137.586 101.33 137.734 101.08 137.859C100.83 137.984 100.504 138.047 100.104 138.047C99.5866 138.047 99.1207 137.926 98.706 137.684C98.294 137.44 97.9673 137.081 97.7259 136.606C97.4872 136.129 97.3679 135.542 97.3679 134.846C97.3679 134.15 97.4858 133.554 97.7216 133.056C97.9602 132.559 98.2869 132.179 98.7017 131.914C99.1165 131.647 99.5866 131.514 100.112 131.514C100.518 131.514 100.847 131.582 101.097 131.718C101.347 131.852 101.541 132.008 101.68 132.187C101.822 132.366 101.932 132.524 102.009 132.66H102.102V131.599H103.351V138.289C103.351 138.852 103.22 139.314 102.959 139.674C102.697 140.035 102.344 140.302 101.898 140.475C101.455 140.649 100.955 140.735 100.398 140.735ZM100.385 136.99C100.751 136.99 101.061 136.904 101.314 136.734C101.57 136.561 101.763 136.314 101.893 135.993C102.027 135.669 102.094 135.281 102.094 134.829C102.094 134.389 102.028 134.001 101.898 133.666C101.767 133.331 101.575 133.069 101.322 132.882C101.07 132.691 100.757 132.596 100.385 132.596C100.001 132.596 99.6818 132.696 99.4261 132.895C99.1705 133.091 98.9773 133.358 98.8466 133.696C98.7188 134.034 98.6548 134.412 98.6548 134.829C98.6548 135.258 98.7202 135.635 98.8509 135.958C98.9815 136.282 99.1747 136.535 99.4304 136.717C99.6889 136.899 100.007 136.99 100.385 136.99ZM107.881 138.277C107.236 138.277 106.68 138.139 106.214 137.863C105.751 137.585 105.393 137.194 105.141 136.691C104.891 136.186 104.766 135.593 104.766 134.914C104.766 134.244 104.891 133.653 105.141 133.142C105.393 132.63 105.746 132.231 106.197 131.944C106.652 131.657 107.183 131.514 107.791 131.514C108.161 131.514 108.518 131.575 108.865 131.697C109.212 131.819 109.523 132.011 109.798 132.272C110.074 132.534 110.291 132.873 110.45 133.291C110.609 133.706 110.689 134.21 110.689 134.804V135.255H105.486V134.301H109.44C109.44 133.966 109.372 133.669 109.236 133.41C109.099 133.149 108.908 132.943 108.661 132.792C108.416 132.642 108.129 132.566 107.8 132.566C107.442 132.566 107.129 132.654 106.862 132.831C106.598 133.004 106.393 133.231 106.249 133.512C106.107 133.791 106.036 134.093 106.036 134.42V135.166C106.036 135.603 106.112 135.975 106.266 136.282C106.422 136.589 106.639 136.824 106.918 136.985C107.196 137.145 107.521 137.224 107.893 137.224C108.135 137.224 108.355 137.19 108.554 137.122C108.753 137.051 108.925 136.946 109.07 136.806C109.214 136.667 109.325 136.495 109.402 136.291L110.608 136.508C110.511 136.863 110.338 137.174 110.088 137.441C109.841 137.706 109.53 137.912 109.155 138.059C108.783 138.204 108.358 138.277 107.881 138.277ZM117.183 138.289C116.768 138.289 116.393 138.213 116.058 138.059C115.723 137.903 115.457 137.677 115.261 137.382C115.068 137.086 114.972 136.724 114.972 136.295C114.972 135.926 115.043 135.622 115.185 135.383C115.327 135.145 115.518 134.956 115.76 134.816C116.001 134.677 116.271 134.572 116.57 134.501C116.868 134.43 117.172 134.376 117.482 134.339C117.874 134.294 118.192 134.257 118.436 134.228C118.68 134.197 118.858 134.147 118.969 134.079C119.08 134.011 119.135 133.9 119.135 133.747V133.717C119.135 133.345 119.03 133.056 118.82 132.852C118.612 132.647 118.303 132.545 117.891 132.545C117.462 132.545 117.124 132.64 116.876 132.831C116.632 133.018 116.463 133.227 116.369 133.457L115.172 133.184C115.314 132.787 115.521 132.466 115.794 132.221C116.07 131.974 116.386 131.795 116.744 131.684C117.102 131.571 117.479 131.514 117.874 131.514C118.135 131.514 118.412 131.545 118.705 131.608C119 131.667 119.276 131.778 119.531 131.94C119.79 132.102 120.001 132.333 120.166 132.635C120.331 132.933 120.413 133.321 120.413 133.798V138.145H119.169V137.25H119.118C119.036 137.414 118.912 137.576 118.747 137.735C118.582 137.895 118.371 138.027 118.112 138.132C117.854 138.237 117.544 138.289 117.183 138.289ZM117.46 137.267C117.813 137.267 118.114 137.197 118.364 137.058C118.616 136.919 118.808 136.737 118.939 136.512C119.072 136.285 119.139 136.042 119.139 135.784V134.94C119.094 134.985 119.006 135.028 118.875 135.068C118.747 135.105 118.601 135.137 118.436 135.166C118.271 135.191 118.111 135.216 117.955 135.238C117.798 135.258 117.668 135.275 117.562 135.289C117.315 135.321 117.089 135.373 116.885 135.447C116.683 135.521 116.521 135.627 116.399 135.767C116.28 135.903 116.22 136.085 116.22 136.312C116.22 136.627 116.337 136.866 116.57 137.028C116.803 137.187 117.099 137.267 117.46 137.267ZM127.475 131.599L125.102 138.145H123.738L121.36 131.599H122.728L124.386 136.636H124.454L126.108 131.599H127.475ZM130.39 138.289C129.975 138.289 129.6 138.213 129.265 138.059C128.93 137.903 128.664 137.677 128.468 137.382C128.275 137.086 128.179 136.724 128.179 136.295C128.179 135.926 128.25 135.622 128.392 135.383C128.534 135.145 128.725 134.956 128.967 134.816C129.208 134.677 129.478 134.572 129.777 134.501C130.075 134.43 130.379 134.376 130.689 134.339C131.081 134.294 131.399 134.257 131.643 134.228C131.887 134.197 132.065 134.147 132.176 134.079C132.287 134.011 132.342 133.9 132.342 133.747V133.717C132.342 133.345 132.237 133.056 132.027 132.852C131.819 132.647 131.51 132.545 131.098 132.545C130.669 132.545 130.331 132.64 130.083 132.831C129.839 133.018 129.67 133.227 129.576 133.457L128.379 133.184C128.521 132.787 128.728 132.466 129.001 132.221C129.277 131.974 129.593 131.795 129.951 131.684C130.309 131.571 130.686 131.514 131.081 131.514C131.342 131.514 131.619 131.545 131.912 131.608C132.207 131.667 132.483 131.778 132.738 131.94C132.997 132.102 133.208 132.333 133.373 132.635C133.538 132.933 133.62 133.321 133.62 133.798V138.145H132.376V137.25H132.325C132.243 137.414 132.119 137.576 131.954 137.735C131.789 137.895 131.578 138.027 131.319 138.132C131.061 138.237 130.751 138.289 130.39 138.289ZM130.667 137.267C131.02 137.267 131.321 137.197 131.571 137.058C131.824 136.919 132.015 136.737 132.146 136.512C132.279 136.285 132.346 136.042 132.346 135.784V134.94C132.301 134.985 132.213 135.028 132.082 135.068C131.954 135.105 131.808 135.137 131.643 135.166C131.478 135.191 131.318 135.216 131.162 135.238C131.005 135.258 130.875 135.275 130.77 135.289C130.522 135.321 130.297 135.373 130.092 135.447C129.89 135.521 129.728 135.627 129.606 135.767C129.487 135.903 129.427 136.085 129.427 136.312C129.427 136.627 129.544 136.866 129.777 137.028C130.01 137.187 130.306 137.267 130.667 137.267ZM135.317 138.145V131.599H136.592V138.145H135.317ZM135.961 130.589C135.739 130.589 135.549 130.515 135.39 130.368C135.234 130.217 135.156 130.038 135.156 129.831C135.156 129.62 135.234 129.441 135.39 129.294C135.549 129.143 135.739 129.068 135.961 129.068C136.183 129.068 136.371 129.143 136.528 129.294C136.687 129.441 136.766 129.62 136.766 129.831C136.766 130.038 136.687 130.217 136.528 130.368C136.371 130.515 136.183 130.589 135.961 130.589ZM139.58 129.417V138.145H138.306V129.417H139.58ZM143.199 138.289C142.784 138.289 142.409 138.213 142.074 138.059C141.739 137.903 141.473 137.677 141.277 137.382C141.084 137.086 140.987 136.724 140.987 136.295C140.987 135.926 141.058 135.622 141.2 135.383C141.342 135.145 141.534 134.956 141.776 134.816C142.017 134.677 142.287 134.572 142.585 134.501C142.884 134.43 143.188 134.376 143.497 134.339C143.889 134.294 144.207 134.257 144.452 134.228C144.696 134.197 144.874 134.147 144.984 134.079C145.095 134.011 145.151 133.9 145.151 133.747V133.717C145.151 133.345 145.045 133.056 144.835 132.852C144.628 132.647 144.318 132.545 143.906 132.545C143.477 132.545 143.139 132.64 142.892 132.831C142.648 133.018 142.479 133.227 142.385 133.457L141.188 133.184C141.33 132.787 141.537 132.466 141.81 132.221C142.085 131.974 142.402 131.795 142.76 131.684C143.118 131.571 143.494 131.514 143.889 131.514C144.151 131.514 144.428 131.545 144.72 131.608C145.016 131.667 145.291 131.778 145.547 131.94C145.805 132.102 146.017 132.333 146.182 132.635C146.347 132.933 146.429 133.321 146.429 133.798V138.145H145.185V137.25H145.134C145.051 137.414 144.928 137.576 144.763 137.735C144.598 137.895 144.386 138.027 144.128 138.132C143.869 138.237 143.56 138.289 143.199 138.289ZM143.476 137.267C143.828 137.267 144.129 137.197 144.379 137.058C144.632 136.919 144.824 136.737 144.955 136.512C145.088 136.285 145.155 136.042 145.155 135.784V134.94C145.109 134.985 145.021 135.028 144.891 135.068C144.763 135.105 144.616 135.137 144.452 135.166C144.287 135.191 144.126 135.216 143.97 135.238C143.814 135.258 143.683 135.275 143.578 135.289C143.331 135.321 143.105 135.373 142.901 135.447C142.699 135.521 142.537 135.627 142.415 135.767C142.295 135.903 142.236 136.085 142.236 136.312C142.236 136.627 142.352 136.866 142.585 137.028C142.818 137.187 143.115 137.267 143.476 137.267ZM148.228 138.145V129.417H149.502V132.66H149.579C149.653 132.524 149.76 132.366 149.899 132.187C150.038 132.008 150.231 131.852 150.478 131.718C150.725 131.582 151.052 131.514 151.458 131.514C151.987 131.514 152.458 131.647 152.873 131.914C153.288 132.181 153.613 132.566 153.849 133.069C154.088 133.572 154.207 134.177 154.207 134.885C154.207 135.592 154.089 136.199 153.853 136.704C153.618 137.207 153.294 137.595 152.882 137.868C152.47 138.137 152 138.272 151.471 138.272C151.074 138.272 150.748 138.206 150.495 138.072C150.245 137.939 150.049 137.782 149.907 137.603C149.765 137.424 149.656 137.265 149.579 137.126H149.473V138.145H148.228ZM149.477 134.872C149.477 135.332 149.544 135.735 149.677 136.082C149.811 136.429 150.004 136.7 150.257 136.896C150.51 137.089 150.819 137.186 151.186 137.186C151.566 137.186 151.885 137.085 152.14 136.883C152.396 136.679 152.589 136.402 152.72 136.052C152.853 135.703 152.92 135.309 152.92 134.872C152.92 134.44 152.855 134.052 152.724 133.708C152.596 133.365 152.403 133.093 152.145 132.895C151.889 132.696 151.569 132.596 151.186 132.596C150.816 132.596 150.504 132.691 150.248 132.882C149.995 133.072 149.804 133.338 149.673 133.679C149.542 134.02 149.477 134.417 149.477 134.872ZM156.912 129.417V138.145H155.638V129.417H156.912ZM161.447 138.277C160.802 138.277 160.247 138.139 159.781 137.863C159.318 137.585 158.96 137.194 158.707 136.691C158.457 136.186 158.332 135.593 158.332 134.914C158.332 134.244 158.457 133.653 158.707 133.142C158.96 132.63 159.312 132.231 159.764 131.944C160.218 131.657 160.75 131.514 161.358 131.514C161.727 131.514 162.085 131.575 162.431 131.697C162.778 131.819 163.089 132.011 163.365 132.272C163.64 132.534 163.858 132.873 164.017 133.291C164.176 133.706 164.255 134.21 164.255 134.804V135.255H159.052V134.301H163.007C163.007 133.966 162.939 133.669 162.802 133.41C162.666 133.149 162.474 132.943 162.227 132.792C161.983 132.642 161.696 132.566 161.366 132.566C161.008 132.566 160.696 132.654 160.429 132.831C160.164 133.004 159.96 133.231 159.815 133.512C159.673 133.791 159.602 134.093 159.602 134.42V135.166C159.602 135.603 159.679 135.975 159.832 136.282C159.988 136.589 160.206 136.824 160.484 136.985C160.762 137.145 161.088 137.224 161.46 137.224C161.701 137.224 161.922 137.19 162.12 137.122C162.319 137.051 162.491 136.946 162.636 136.806C162.781 136.667 162.892 136.495 162.968 136.291L164.174 136.508C164.078 136.863 163.904 137.174 163.654 137.441C163.407 137.706 163.096 137.912 162.721 138.059C162.349 138.204 161.924 138.277 161.447 138.277Z" fill="#838383"/>
</g>
<defs>
<clipPath id="clip0_2023_14047">
<rect y="0.144531" width="223" height="176" rx="12" fill="white"/>
</clipPath>
<clipPath id="clip1_2023_14047">
<rect x="73" y="37.1445" width="76" height="76" rx="38" fill="white"/>
</clipPath>
</defs>
</svg>
