<svg width="118" height="38" viewBox="0 0 118 38" fill="none" xmlns="http://www.w3.org/2000/svg">
<rect x="1.81177" y="1" width="21.7176" height="22" rx="10.8588" fill="#2E3B95"/>
<rect x="1.81177" y="1" width="21.7176" height="22" rx="10.8588" stroke="#FCFCFD" stroke-width="2"/>
<rect x="17.6235" y="1" width="21.7176" height="22" rx="10.8588" fill="#121212"/>
<rect x="17.6235" y="1" width="21.7176" height="22" rx="10.8588" stroke="#FCFCFD" stroke-width="2"/>
<rect x="33.4353" y="1" width="21.7176" height="22" rx="10.8588" fill="#45B36B"/>
<rect x="33.4353" y="1" width="21.7176" height="22" rx="10.8588" stroke="#FCFCFD" stroke-width="2"/>
<path d="M3.04188 36.1101C2.69624 36.1101 2.38492 36.0485 2.10793 35.9254C1.83331 35.8 1.61551 35.6153 1.45452 35.3714C1.29591 35.1276 1.2166 34.8269 1.2166 34.4695C1.2166 34.1617 1.27342 33.9072 1.38705 33.706C1.50069 33.5047 1.65575 33.3438 1.85225 33.223C2.04875 33.1023 2.2701 33.0111 2.51631 32.9496C2.76489 32.8857 3.02176 32.8395 3.28691 32.8111C3.60651 32.7779 3.86574 32.7483 4.06461 32.7223C4.26347 32.6939 4.40789 32.6513 4.49785 32.5945C4.59018 32.5353 4.63634 32.4441 4.63634 32.321V32.2997C4.63634 32.0322 4.55703 31.825 4.39842 31.6783C4.2398 31.5315 4.01134 31.4581 3.71305 31.4581C3.39818 31.4581 3.14842 31.5268 2.96376 31.6641C2.78146 31.8014 2.65836 31.9635 2.59444 32.1506L1.39415 31.9801C1.48885 31.6487 1.6451 31.3717 1.8629 31.1491C2.08071 30.9242 2.34704 30.7562 2.66191 30.6449C2.97678 30.5312 3.32479 30.4744 3.70594 30.4744C3.96873 30.4744 4.23033 30.5052 4.49075 30.5668C4.75116 30.6283 4.98909 30.7301 5.20452 30.8722C5.41996 31.0118 5.59278 31.2024 5.72299 31.4439C5.85557 31.6854 5.92185 31.9872 5.92185 32.3494V36H4.68606V35.2507H4.64344C4.56532 35.4022 4.45523 35.5443 4.31319 35.6768C4.17351 35.8071 3.99714 35.9124 3.78407 35.9929C3.57337 36.071 3.32597 36.1101 3.04188 36.1101ZM3.37569 35.1655C3.63374 35.1655 3.85746 35.1146 4.04685 35.0128C4.23625 34.9086 4.38184 34.7713 4.48364 34.6009C4.58781 34.4304 4.63989 34.2446 4.63989 34.0433V33.4006C4.59965 33.4337 4.53099 33.4645 4.43393 33.4929C4.33923 33.5213 4.2327 33.5462 4.11432 33.5675C3.99595 33.5888 3.87877 33.6077 3.76276 33.6243C3.64676 33.6409 3.54614 33.6551 3.46092 33.6669C3.26915 33.6929 3.09752 33.7356 2.946 33.7947C2.79449 33.8539 2.67493 33.9368 2.58734 34.0433C2.49974 34.1475 2.45594 34.2824 2.45594 34.4482C2.45594 34.6849 2.54235 34.8636 2.71518 34.9844C2.888 35.1051 3.10817 35.1655 3.37569 35.1655ZM11.8913 30.5455L9.94884 36H8.52839L6.58592 30.5455H7.95665L9.21021 34.5973H9.26702L10.5241 30.5455H11.8913ZM14.1942 36.1101C13.8486 36.1101 13.5373 36.0485 13.2603 35.9254C12.9857 35.8 12.7679 35.6153 12.6069 35.3714C12.4482 35.1276 12.3689 34.8269 12.3689 34.4695C12.3689 34.1617 12.4258 33.9072 12.5394 33.706C12.653 33.5047 12.8081 33.3438 13.0046 33.223C13.2011 33.1023 13.4224 33.0111 13.6687 32.9496C13.9172 32.8857 14.1741 32.8395 14.4393 32.8111C14.7589 32.7779 15.0181 32.7483 15.217 32.7223C15.4158 32.6939 15.5602 32.6513 15.6502 32.5945C15.7425 32.5353 15.7887 32.4441 15.7887 32.321V32.2997C15.7887 32.0322 15.7094 31.825 15.5508 31.6783C15.3921 31.5315 15.1637 31.4581 14.8654 31.4581C14.5505 31.4581 14.3008 31.5268 14.1161 31.6641C13.9338 31.8014 13.8107 31.9635 13.7468 32.1506L12.5465 31.9801C12.6412 31.6487 12.7974 31.3717 13.0152 31.1491C13.2331 30.9242 13.4994 30.7562 13.8143 30.6449C14.1291 30.5312 14.4771 30.4744 14.8583 30.4744C15.1211 30.4744 15.3827 30.5052 15.6431 30.5668C15.9035 30.6283 16.1414 30.7301 16.3569 30.8722C16.5723 31.0118 16.7451 31.2024 16.8753 31.4439C17.0079 31.6854 17.0742 31.9872 17.0742 32.3494V36H15.8384V35.2507H15.7958C15.7177 35.4022 15.6076 35.5443 15.4655 35.6768C15.3259 35.8071 15.1495 35.9124 14.9364 35.9929C14.7257 36.071 14.4783 36.1101 14.1942 36.1101ZM14.528 35.1655C14.7861 35.1655 15.0098 35.1146 15.1992 35.0128C15.3886 34.9086 15.5342 34.7713 15.636 34.6009C15.7402 34.4304 15.7922 34.2446 15.7922 34.0433V33.4006C15.752 33.4337 15.6833 33.4645 15.5863 33.4929C15.4916 33.5213 15.385 33.5462 15.2667 33.5675C15.1483 33.5888 15.0311 33.6077 14.9151 33.6243C14.7991 33.6409 14.6985 33.6551 14.6133 33.6669C14.4215 33.6929 14.2499 33.7356 14.0983 33.7947C13.9468 33.8539 13.8273 33.9368 13.7397 34.0433C13.6521 34.1475 13.6083 34.2824 13.6083 34.4482C13.6083 34.6849 13.6947 34.8636 13.8675 34.9844C14.0403 35.1051 14.2605 35.1655 14.528 35.1655ZM18.3668 36V30.5455H19.6523V36H18.3668ZM19.0131 29.7713C18.8095 29.7713 18.6343 29.7038 18.4875 29.5689C18.3408 29.4316 18.2674 29.267 18.2674 29.0753C18.2674 28.8812 18.3408 28.7166 18.4875 28.5817C18.6343 28.4444 18.8095 28.3757 19.0131 28.3757C19.2191 28.3757 19.3943 28.4444 19.5387 28.5817C19.6855 28.7166 19.7589 28.8812 19.7589 29.0753C19.7589 29.267 19.6855 29.4316 19.5387 29.5689C19.3943 29.7038 19.2191 29.7713 19.0131 29.7713ZM22.2597 28.7273V36H20.9742V28.7273H22.2597ZM25.1513 36.1101C24.8056 36.1101 24.4943 36.0485 24.2173 35.9254C23.9427 35.8 23.7249 35.6153 23.5639 35.3714C23.4053 35.1276 23.326 34.8269 23.326 34.4695C23.326 34.1617 23.3828 33.9072 23.4964 33.706C23.6101 33.5047 23.7651 33.3438 23.9616 33.223C24.1581 33.1023 24.3795 33.0111 24.6257 32.9496C24.8743 32.8857 25.1311 32.8395 25.3963 32.8111C25.7159 32.7779 25.9751 32.7483 26.174 32.7223C26.3728 32.6939 26.5173 32.6513 26.6072 32.5945C26.6996 32.5353 26.7457 32.4441 26.7457 32.321V32.2997C26.7457 32.0322 26.6664 31.825 26.5078 31.6783C26.3492 31.5315 26.1207 31.4581 25.8224 31.4581C25.5076 31.4581 25.2578 31.5268 25.0731 31.6641C24.8908 31.8014 24.7677 31.9635 24.7038 32.1506L23.5035 31.9801C23.5982 31.6487 23.7545 31.3717 23.9723 31.1491C24.1901 30.9242 24.4564 30.7562 24.7713 30.6449C25.0862 30.5312 25.4342 30.4744 25.8153 30.4744C26.0781 30.4744 26.3397 30.5052 26.6001 30.5668C26.8605 30.6283 27.0985 30.7301 27.3139 30.8722C27.5293 31.0118 27.7022 31.2024 27.8324 31.4439C27.9649 31.6854 28.0312 31.9872 28.0312 32.3494V36H26.7954V35.2507H26.7528C26.6747 35.4022 26.5646 35.5443 26.4226 35.6768C26.2829 35.8071 26.1065 35.9124 25.8934 35.9929C25.6827 36.071 25.4353 36.1101 25.1513 36.1101ZM25.4851 35.1655C25.7431 35.1655 25.9668 35.1146 26.1562 35.0128C26.3456 34.9086 26.4912 34.7713 26.593 34.6009C26.6972 34.4304 26.7493 34.2446 26.7493 34.0433V33.4006C26.709 33.4337 26.6404 33.4645 26.5433 33.4929C26.4486 33.5213 26.3421 33.5462 26.2237 33.5675C26.1053 33.5888 25.9881 33.6077 25.8721 33.6243C25.7561 33.6409 25.6555 33.6551 25.5703 33.6669C25.3785 33.6929 25.2069 33.7356 25.0554 33.7947C24.9039 33.8539 24.7843 33.9368 24.6967 34.0433C24.6091 34.1475 24.5653 34.2824 24.5653 34.4482C24.5653 34.6849 24.6517 34.8636 24.8246 34.9844C24.9974 35.1051 25.2175 35.1655 25.4851 35.1655ZM29.3807 36V28.7273H30.6662V31.4474H30.7194C30.7857 31.3149 30.8792 31.174 31 31.0249C31.1207 30.8733 31.2841 30.7443 31.49 30.6378C31.696 30.5289 31.9588 30.4744 32.2784 30.4744C32.6998 30.4744 33.0798 30.5821 33.4183 30.7976C33.7592 31.0107 34.0291 31.3267 34.228 31.7457C34.4292 32.1624 34.5298 32.6738 34.5298 33.2798C34.5298 33.8788 34.4316 34.3878 34.2351 34.8068C34.0386 35.2259 33.771 35.5455 33.4325 35.7656C33.094 35.9858 32.7104 36.0959 32.2819 36.0959C31.9694 36.0959 31.7102 36.0438 31.5042 35.9396C31.2983 35.8355 31.1326 35.71 31.0071 35.5632C30.884 35.4141 30.7881 35.2732 30.7194 35.1406H30.6449V36H29.3807ZM30.6413 33.2727C30.6413 33.6255 30.691 33.9344 30.7905 34.1996C30.8923 34.4647 31.0379 34.6719 31.2273 34.821C31.419 34.9678 31.651 35.0412 31.9233 35.0412C32.2074 35.0412 32.4453 34.9654 32.6371 34.8139C32.8288 34.66 32.9732 34.4505 33.0703 34.1854C33.1697 33.9179 33.2194 33.6136 33.2194 33.2727C33.2194 32.9342 33.1709 32.6335 33.0738 32.3707C32.9768 32.108 32.8324 31.902 32.6406 31.7528C32.4488 31.6037 32.2097 31.5291 31.9233 31.5291C31.6487 31.5291 31.4155 31.6013 31.2237 31.7457C31.0319 31.8902 30.8863 32.0926 30.7869 32.353C30.6898 32.6134 30.6413 32.92 30.6413 33.2727ZM36.9082 28.7273V36H35.6227V28.7273H36.9082ZM40.6449 36.1065C40.098 36.1065 39.6257 35.9929 39.228 35.7656C38.8326 35.536 38.5284 35.2116 38.3153 34.7926C38.1023 34.3712 37.9957 33.8752 37.9957 33.3047C37.9957 32.7436 38.1023 32.2512 38.3153 31.8274C38.5308 31.4013 38.8314 31.0698 39.2173 30.8331C39.6032 30.594 40.0566 30.4744 40.5774 30.4744C40.9136 30.4744 41.2308 30.5289 41.5291 30.6378C41.8298 30.7443 42.0949 30.91 42.3246 31.1349C42.5566 31.3598 42.7389 31.6463 42.8714 31.9943C43.004 32.34 43.0703 32.7519 43.0703 33.2301V33.6243H38.5994V32.7578H41.838C41.8357 32.5116 41.7824 32.2926 41.6782 32.1009C41.5741 31.9067 41.4285 31.754 41.2415 31.6428C41.0568 31.5315 40.8414 31.4759 40.5951 31.4759C40.3324 31.4759 40.1015 31.5398 39.9027 31.6676C39.7038 31.7931 39.5487 31.9588 39.4375 32.1648C39.3286 32.3684 39.2729 32.5921 39.2706 32.8359V33.5923C39.2706 33.9096 39.3286 34.1818 39.4446 34.4091C39.5606 34.634 39.7228 34.8068 39.9311 34.9276C40.1394 35.0459 40.3833 35.1051 40.6626 35.1051C40.8496 35.1051 41.0189 35.0791 41.1704 35.027C41.3219 34.9725 41.4533 34.8932 41.5646 34.7891C41.6759 34.6849 41.7599 34.5559 41.8167 34.402L43.017 34.5369C42.9413 34.8542 42.7969 35.1312 42.5838 35.3679C42.3731 35.6023 42.1032 35.7846 41.7741 35.9148C41.4451 36.0426 41.0686 36.1065 40.6449 36.1065ZM46.6383 36V30.5455H47.9238V36H46.6383ZM47.2846 29.7713C47.081 29.7713 46.9058 29.7038 46.759 29.5689C46.6123 29.4316 46.5389 29.267 46.5389 29.0753C46.5389 28.8812 46.6123 28.7166 46.759 28.5817C46.9058 28.4444 47.081 28.3757 47.2846 28.3757C47.4906 28.3757 47.6658 28.4444 47.8102 28.5817C47.9569 28.7166 48.0303 28.8812 48.0303 29.0753C48.0303 29.267 47.9569 29.4316 47.8102 29.5689C47.6658 29.7038 47.4906 29.7713 47.2846 29.7713ZM50.5312 32.804V36H49.2457V30.5455H50.4744V31.4723H50.5383C50.6638 31.1669 50.8639 30.9242 51.1385 30.7443C51.4155 30.5644 51.7576 30.4744 52.1648 30.4744C52.5412 30.4744 52.8691 30.5549 53.1484 30.7159C53.4301 30.8769 53.6479 31.1101 53.8018 31.4155C53.9581 31.7209 54.035 32.0914 54.0326 32.527V36H52.7471V32.7259C52.7471 32.3613 52.6524 32.076 52.463 31.87C52.276 31.6641 52.0168 31.5611 51.6853 31.5611C51.4604 31.5611 51.2604 31.6108 51.0852 31.7102C50.9124 31.8073 50.7763 31.9482 50.6768 32.1328C50.5798 32.3175 50.5312 32.5412 50.5312 32.804ZM60.5437 30.5455V31.5398H57.408V30.5455H60.5437ZM58.1822 29.2386H59.4677V34.3594C59.4677 34.5322 59.4937 34.6648 59.5458 34.7571C59.6002 34.8471 59.6713 34.9086 59.7589 34.9418C59.8465 34.9749 59.9435 34.9915 60.05 34.9915C60.1305 34.9915 60.2039 34.9856 60.2702 34.9737C60.3389 34.9619 60.391 34.9512 60.4265 34.9418L60.6431 35.9467C60.5744 35.9704 60.4762 35.9964 60.3483 36.0249C60.2229 36.0533 60.069 36.0698 59.8867 36.0746C59.5647 36.084 59.2747 36.0355 59.0167 35.929C58.7586 35.8201 58.5538 35.652 58.4023 35.4247C58.2532 35.1974 58.1798 34.9134 58.1822 34.5724V29.2386ZM63.0215 32.804V36H61.736V28.7273H62.9931V31.4723H63.057C63.1848 31.1645 63.3825 30.9219 63.65 30.7443C63.9199 30.5644 64.2632 30.4744 64.6798 30.4744C65.0586 30.4744 65.3889 30.5537 65.6706 30.7124C65.9523 30.871 66.1701 31.103 66.324 31.4084C66.4803 31.7138 66.5584 32.0866 66.5584 32.527V36H65.2729V32.7259C65.2729 32.3589 65.1782 32.0736 64.9888 31.87C64.8018 31.6641 64.539 31.5611 64.2004 31.5611C63.9732 31.5611 63.7696 31.6108 63.5896 31.7102C63.4121 31.8073 63.2724 31.9482 63.1706 32.1328C63.0712 32.3175 63.0215 32.5412 63.0215 32.804ZM70.2835 36.1065C69.7367 36.1065 69.2644 35.9929 68.8666 35.7656C68.4713 35.536 68.1671 35.2116 67.954 34.7926C67.7409 34.3712 67.6344 33.8752 67.6344 33.3047C67.6344 32.7436 67.7409 32.2512 67.954 31.8274C68.1694 31.4013 68.4701 31.0698 68.856 30.8331C69.2419 30.594 69.6952 30.4744 70.2161 30.4744C70.5522 30.4744 70.8695 30.5289 71.1678 30.6378C71.4684 30.7443 71.7336 30.91 71.9632 31.1349C72.1952 31.3598 72.3775 31.6463 72.5101 31.9943C72.6427 32.34 72.709 32.7519 72.709 33.2301V33.6243H68.2381V32.7578H71.4767C71.4744 32.5116 71.4211 32.2926 71.3169 32.1009C71.2128 31.9067 71.0672 31.754 70.8801 31.6428C70.6955 31.5315 70.48 31.4759 70.2338 31.4759C69.971 31.4759 69.7402 31.5398 69.5413 31.6676C69.3425 31.7931 69.1874 31.9588 69.0761 32.1648C68.9672 32.3684 68.9116 32.5921 68.9092 32.8359V33.5923C68.9092 33.9096 68.9672 34.1818 69.0833 34.4091C69.1993 34.634 69.3614 34.8068 69.5698 34.9276C69.7781 35.0459 70.0219 35.1051 70.3013 35.1051C70.4883 35.1051 70.6576 35.0791 70.8091 35.027C70.9606 34.9725 71.092 34.8932 71.2033 34.7891C71.3145 34.6849 71.3986 34.5559 71.4554 34.402L72.6557 34.5369C72.5799 34.8542 72.4355 35.1312 72.2225 35.3679C72.0118 35.6023 71.7419 35.7846 71.4128 35.9148C71.0837 36.0426 70.7073 36.1065 70.2835 36.1065ZM78.1076 31.9872L76.9357 32.1151C76.9026 31.9967 76.8446 31.8854 76.7617 31.7812C76.6812 31.6771 76.5723 31.593 76.435 31.5291C76.2977 31.4652 76.1296 31.4332 75.9307 31.4332C75.6632 31.4332 75.4383 31.4912 75.256 31.6072C75.0761 31.7232 74.9873 31.8736 74.9897 32.0582C74.9873 32.2169 75.0453 32.3459 75.1637 32.4453C75.2844 32.5447 75.4833 32.6264 75.7603 32.6903L76.6907 32.8892C77.2068 33.0005 77.5903 33.1768 77.8412 33.4183C78.0946 33.6598 78.2224 33.9759 78.2248 34.3665C78.2224 34.7098 78.1218 35.0128 77.9229 35.2756C77.7264 35.536 77.453 35.7396 77.1026 35.8864C76.7522 36.0331 76.3498 36.1065 75.8952 36.1065C75.2276 36.1065 74.6902 35.9669 74.283 35.6875C73.8758 35.4058 73.6331 35.014 73.555 34.5121L74.8086 34.3913C74.8654 34.6375 74.9861 34.8234 75.1708 34.9489C75.3554 35.0743 75.5957 35.1371 75.8917 35.1371C76.1971 35.1371 76.4421 35.0743 76.6268 34.9489C76.8138 34.8234 76.9073 34.6683 76.9073 34.4837C76.9073 34.3274 76.8469 34.1984 76.7262 34.0966C76.6078 33.9948 76.4232 33.9167 76.1722 33.8622L75.2418 33.6669C74.7186 33.558 74.3315 33.3745 74.0806 33.1165C73.8296 32.8561 73.7054 32.527 73.7077 32.1293C73.7054 31.7931 73.7965 31.5019 73.9812 31.2557C74.1682 31.0071 74.4274 30.8153 74.7589 30.6804C75.0927 30.5431 75.4774 30.4744 75.913 30.4744C76.5522 30.4744 77.0553 30.6106 77.4222 30.8828C77.7915 31.1551 78.02 31.5232 78.1076 31.9872ZM81.6996 36.1065C81.1527 36.1065 80.6804 35.9929 80.2826 35.7656C79.8873 35.536 79.5831 35.2116 79.37 34.7926C79.1569 34.3712 79.0504 33.8752 79.0504 33.3047C79.0504 32.7436 79.1569 32.2512 79.37 31.8274C79.5854 31.4013 79.8861 31.0698 80.272 30.8331C80.6579 30.594 81.1112 30.4744 81.6321 30.4744C81.9683 30.4744 82.2855 30.5289 82.5838 30.6378C82.8844 30.7443 83.1496 30.91 83.3792 31.1349C83.6112 31.3598 83.7935 31.6463 83.9261 31.9943C84.0587 32.34 84.125 32.7519 84.125 33.2301V33.6243H79.6541V32.7578H82.8927C82.8904 32.5116 82.8371 32.2926 82.7329 32.1009C82.6288 31.9067 82.4832 31.754 82.2961 31.6428C82.1115 31.5315 81.896 31.4759 81.6498 31.4759C81.3871 31.4759 81.1562 31.5398 80.9574 31.6676C80.7585 31.7931 80.6034 31.9588 80.4922 32.1648C80.3833 32.3684 80.3276 32.5921 80.3253 32.8359V33.5923C80.3253 33.9096 80.3833 34.1818 80.4993 34.4091C80.6153 34.634 80.7774 34.8068 80.9858 34.9276C81.1941 35.0459 81.438 35.1051 81.7173 35.1051C81.9043 35.1051 82.0736 35.0791 82.2251 35.027C82.3766 34.9725 82.508 34.8932 82.6193 34.7891C82.7306 34.6849 82.8146 34.5559 82.8714 34.402L84.0717 34.5369C83.996 34.8542 83.8515 35.1312 83.6385 35.3679C83.4278 35.6023 83.1579 35.7846 82.8288 35.9148C82.4997 36.0426 82.1233 36.1065 81.6996 36.1065ZM90.0722 36.1065C89.5277 36.1065 89.0602 35.987 88.6695 35.7479C88.2813 35.5088 87.9818 35.1785 87.7711 34.7571C87.5628 34.3333 87.4586 33.8456 87.4586 33.294C87.4586 32.7401 87.5651 32.2512 87.7782 31.8274C87.9913 31.4013 88.2919 31.0698 88.6802 30.8331C89.0708 30.594 89.5325 30.4744 90.0651 30.4744C90.5078 30.4744 90.8997 30.5561 91.2406 30.7195C91.5838 30.8804 91.8573 31.1089 92.0609 31.4048C92.2645 31.6984 92.3805 32.0417 92.4089 32.4347H91.1802C91.1305 32.1719 91.0121 31.9529 90.8251 31.7777C90.6404 31.6001 90.393 31.5114 90.0829 31.5114C89.8201 31.5114 89.5893 31.5824 89.3904 31.7244C89.1916 31.8641 89.0365 32.0653 88.9252 32.3281C88.8163 32.5909 88.7619 32.9058 88.7619 33.2727C88.7619 33.6444 88.8163 33.964 88.9252 34.2315C89.0341 34.4967 89.1868 34.7015 89.3833 34.8459C89.5822 34.9879 89.8154 35.0589 90.0829 35.0589C90.2723 35.0589 90.4416 35.0234 90.5907 34.9524C90.7422 34.879 90.8689 34.7737 90.9707 34.6364C91.0725 34.4991 91.1423 34.3321 91.1802 34.1357H92.4089C92.3781 34.5215 92.2645 34.8636 92.068 35.1619C91.8715 35.4579 91.604 35.6899 91.2654 35.858C90.9269 36.0237 90.5292 36.1065 90.0722 36.1065ZM95.8437 36.1065C95.3111 36.1065 94.8494 35.9893 94.4588 35.755C94.0682 35.5206 93.7651 35.1927 93.5497 34.7713C93.3366 34.3499 93.2301 33.8575 93.2301 33.294C93.2301 32.7306 93.3366 32.237 93.5497 31.8132C93.7651 31.3894 94.0682 31.0604 94.4588 30.826C94.8494 30.5916 95.3111 30.4744 95.8437 30.4744C96.3764 30.4744 96.838 30.5916 97.2287 30.826C97.6193 31.0604 97.9211 31.3894 98.1342 31.8132C98.3496 32.237 98.4574 32.7306 98.4574 33.294C98.4574 33.8575 98.3496 34.3499 98.1342 34.7713C97.9211 35.1927 97.6193 35.5206 97.2287 35.755C96.838 35.9893 96.3764 36.1065 95.8437 36.1065ZM95.8508 35.0767C96.1397 35.0767 96.3811 34.9974 96.5753 34.8388C96.7694 34.6778 96.9138 34.4624 97.0085 34.1925C97.1056 33.9226 97.1541 33.6219 97.1541 33.2905C97.1541 32.9567 97.1056 32.6548 97.0085 32.3849C96.9138 32.1127 96.7694 31.8961 96.5753 31.7351C96.3811 31.5741 96.1397 31.4936 95.8508 31.4936C95.5549 31.4936 95.3087 31.5741 95.1122 31.7351C94.9181 31.8961 94.7725 32.1127 94.6754 32.3849C94.5807 32.6548 94.5334 32.9567 94.5334 33.2905C94.5334 33.6219 94.5807 33.9226 94.6754 34.1925C94.7725 34.4624 94.9181 34.6778 95.1122 34.8388C95.3087 34.9974 95.5549 35.0767 95.8508 35.0767ZM100.834 28.7273V36H99.5485V28.7273H100.834ZM104.535 36.1065C104.002 36.1065 103.541 35.9893 103.15 35.755C102.76 35.5206 102.457 35.1927 102.241 34.7713C102.028 34.3499 101.921 33.8575 101.921 33.294C101.921 32.7306 102.028 32.237 102.241 31.8132C102.457 31.3894 102.76 31.0604 103.15 30.826C103.541 30.5916 104.002 30.4744 104.535 30.4744C105.068 30.4744 105.529 30.5916 105.92 30.826C106.311 31.0604 106.613 31.3894 106.826 31.8132C107.041 32.237 107.149 32.7306 107.149 33.294C107.149 33.8575 107.041 34.3499 106.826 34.7713C106.613 35.1927 106.311 35.5206 105.92 35.755C105.529 35.9893 105.068 36.1065 104.535 36.1065ZM104.542 35.0767C104.831 35.0767 105.073 34.9974 105.267 34.8388C105.461 34.6778 105.605 34.4624 105.7 34.1925C105.797 33.9226 105.846 33.6219 105.846 33.2905C105.846 32.9567 105.797 32.6548 105.7 32.3849C105.605 32.1127 105.461 31.8961 105.267 31.7351C105.073 31.5741 104.831 31.4936 104.542 31.4936C104.246 31.4936 104 31.5741 103.804 31.7351C103.609 31.8961 103.464 32.1127 103.367 32.3849C103.272 32.6548 103.225 32.9567 103.225 33.2905C103.225 33.6219 103.272 33.9226 103.367 34.1925C103.464 34.4624 103.609 34.6778 103.804 34.8388C104 34.9974 104.246 35.0767 104.542 35.0767ZM108.24 36V30.5455H109.486V31.4545H109.543C109.643 31.1397 109.813 30.897 110.054 30.7266C110.298 30.5537 110.577 30.4673 110.889 30.4673C110.96 30.4673 111.039 30.4709 111.127 30.478C111.217 30.4827 111.291 30.491 111.351 30.5028V31.6854C111.296 31.6664 111.21 31.6499 111.091 31.6357C110.975 31.6191 110.863 31.6108 110.754 31.6108C110.52 31.6108 110.309 31.6617 110.122 31.7635C109.937 31.8629 109.792 32.0014 109.685 32.179C109.579 32.3565 109.525 32.5613 109.525 32.7933V36H108.24ZM116.516 31.9872L115.344 32.1151C115.311 31.9967 115.253 31.8854 115.17 31.7812C115.089 31.6771 114.981 31.593 114.843 31.5291C114.706 31.4652 114.538 31.4332 114.339 31.4332C114.071 31.4332 113.847 31.4912 113.664 31.6072C113.484 31.7232 113.396 31.8736 113.398 32.0582C113.396 32.2169 113.454 32.3459 113.572 32.4453C113.693 32.5447 113.891 32.6264 114.168 32.6903L115.099 32.8892C115.615 33.0005 115.998 33.1768 116.249 33.4183C116.503 33.6598 116.631 33.9759 116.633 34.3665C116.631 34.7098 116.53 35.0128 116.331 35.2756C116.135 35.536 115.861 35.7396 115.511 35.8864C115.16 36.0331 114.758 36.1065 114.303 36.1065C113.636 36.1065 113.098 35.9669 112.691 35.6875C112.284 35.4058 112.041 35.014 111.963 34.5121L113.217 34.3913C113.274 34.6375 113.394 34.8234 113.579 34.9489C113.764 35.0743 114.004 35.1371 114.3 35.1371C114.605 35.1371 114.85 35.0743 115.035 34.9489C115.222 34.8234 115.315 34.6683 115.315 34.4837C115.315 34.3274 115.255 34.1984 115.134 34.0966C115.016 33.9948 114.831 33.9167 114.58 33.8622L113.65 33.6669C113.127 33.558 112.74 33.3745 112.489 33.1165C112.238 32.8561 112.114 32.527 112.116 32.1293C112.114 31.7931 112.205 31.5019 112.389 31.2557C112.576 31.0071 112.836 30.8153 113.167 30.6804C113.501 30.5431 113.886 30.4744 114.321 30.4744C114.96 30.4744 115.463 30.6106 115.83 30.8828C116.2 31.1551 116.428 31.5232 116.516 31.9872Z" fill="#605F5F"/>
</svg>
