<svg width="40" height="41" viewBox="0 0 40 41" fill="none" xmlns="http://www.w3.org/2000/svg">
<rect x="0.5" y="0.644531" width="39" height="39" rx="7.5" stroke="#E1E1E1"/>
<path d="M15.0001 30.1445C16.1046 30.1445 17.0001 29.2491 17.0001 28.1445C17.0001 27.04 16.1046 26.1445 15.0001 26.1445C13.8955 26.1445 13.0001 27.04 13.0001 28.1445C13.0001 29.2491 13.8955 30.1445 15.0001 30.1445Z" fill="#121212"/>
<path d="M25.0001 30.1445C26.1046 30.1445 27.0001 29.2491 27.0001 28.1445C27.0001 27.04 26.1046 26.1445 25.0001 26.1445C23.8955 26.1445 23.0001 27.04 23.0001 28.1445C23.0001 29.2491 23.8955 30.1445 25.0001 30.1445Z" fill="#121212"/>
<path d="M11.4472 10.2501C10.9533 10.0031 10.3526 10.2033 10.1056 10.6973C9.85862 11.1913 10.0588 11.7919 10.5528 12.0389L11.5563 12.5407C11.8661 12.6956 12.0737 12.9997 12.105 13.3446L12.8388 21.4161C12.9793 22.9614 14.2749 24.1445 15.8265 24.1445H24.4914C25.8309 24.1445 27.008 23.2566 27.376 21.9687L28.5974 17.6939C28.9624 16.4163 28.0031 15.1445 26.6743 15.1445H14.2769L14.0968 13.1635C14.0027 12.1288 13.38 11.2165 12.4508 10.7518L11.4472 10.2501Z" fill="#121212"/>
</svg>
