<svg width="32" height="33" viewBox="0 0 32 33" fill="none" xmlns="http://www.w3.org/2000/svg">
<rect y="0.144531" width="32" height="32" rx="8" fill="#74EACF"/>
<path fill-rule="evenodd" clip-rule="evenodd" d="M18.091 11.4097C18.4968 11.0351 19.1294 11.0604 19.504 11.4663L22.7348 14.9662C23.0884 15.3493 23.0884 15.9397 22.7348 16.3228L19.504 19.8228C19.1294 20.2286 18.4968 20.2539 18.091 19.8793C17.6851 19.5047 17.6598 18.8721 18.0344 18.4663L19.716 16.6445L10 16.6445C9.44772 16.6445 9.00001 16.1968 9.00001 15.6445C9.00001 15.0922 9.44772 14.6445 10 14.6445L19.716 14.6445L18.0344 12.8228C17.6598 12.417 17.6851 11.7843 18.091 11.4097Z" fill="#FCFCFD"/>
</svg>
