<svg width="12" height="13" viewBox="0 0 12 13" fill="none" xmlns="http://www.w3.org/2000/svg">
<path fill-rule="evenodd" clip-rule="evenodd" d="M11.76 6.63633C11.76 6.21088 11.7218 5.80179 11.6509 5.40906H6V7.72997H9.2291C9.09001 8.47997 8.66728 9.11543 8.03182 9.54088V11.0463H9.97092C11.1055 10.0018 11.76 8.46361 11.76 6.63633Z" fill="#4285F4"/>
<path fill-rule="evenodd" clip-rule="evenodd" d="M5.99977 12.5C7.61977 12.5 8.97796 11.9628 9.97069 11.0464L8.03159 9.54093C7.49432 9.90093 6.80704 10.1137 5.99977 10.1137C4.43704 10.1137 3.11431 9.0582 2.64249 7.64001H0.637939V9.19456C1.62521 11.1555 3.65431 12.5 5.99977 12.5Z" fill="#34A853"/>
<path fill-rule="evenodd" clip-rule="evenodd" d="M2.64273 7.63997C2.52273 7.27997 2.45455 6.89543 2.45455 6.49997C2.45455 6.10452 2.52273 5.71997 2.64273 5.35997V3.80542H0.638183C0.231819 4.61542 0 5.53179 0 6.49997C0 7.46815 0.231819 8.38452 0.638183 9.19452L2.64273 7.63997Z" fill="#FBBC05"/>
<path fill-rule="evenodd" clip-rule="evenodd" d="M5.99977 2.88637C6.88068 2.88637 7.67159 3.1891 8.29341 3.78364L10.0143 2.06273C8.97523 1.09455 7.61704 0.5 5.99977 0.5C3.65431 0.5 1.62521 1.84455 0.637939 3.80546L2.64249 5.36001C3.11431 3.94183 4.43704 2.88637 5.99977 2.88637Z" fill="#EA4335"/>
</svg>
