<svg width="101" height="70" viewBox="0 0 101 70" fill="none" xmlns="http://www.w3.org/2000/svg">
<path d="M93.6143 19.4808C85.3307 8.38618 72.7565 4.08859 60.8899 7.81167C59.6353 6.78669 58.33 5.82549 56.9791 4.93169C55.303 3.77522 50.8111 1.79057 46.0213 0.910159C41.8025 0.0725644 37.4885 -0.178502 33.2013 0.164049C24.1952 0.813164 16.1649 4.14828 9.90012 10.0276C3.63534 15.907 -0.275495 25.2259 0.000125661 36.2982C0.332882 45.5866 4.14996 54.4078 10.6897 61.0018C17.2451 67.575 27.6218 71.201 39.0712 69.6342C43.6332 68.93 47.9476 67.0963 51.6231 64.2996C52.1818 63.8744 52.7033 63.4415 53.18 63.0014C63.5194 70.3804 76.8312 70.4624 88.005 62.1285C102.188 51.4815 104.229 33.6867 93.6143 19.4808ZM49.0084 62.0464C43.8612 63.9547 38.2777 64.3543 32.9119 63.198C27.5461 62.0417 22.6206 59.3776 18.7126 55.5178C13.1331 50.0265 10.0044 42.8713 9.31908 33.9479C8.75488 27.8979 9.55685 21.7984 11.6656 16.101C13.7216 10.811 16.88 6.99095 20.9622 4.53625C27.7187 0.619176 34.8625 0.417726 42.5947 3.94682C46.5001 5.79113 49.9746 8.4374 52.7927 11.7138C52.2489 12.0645 51.7125 12.4599 51.1835 12.8404C37.0301 23.4726 34.9519 41.2822 45.5669 55.4881C47.1282 57.5941 48.9196 59.5185 50.9079 61.2256C50.312 61.5165 49.6788 61.7926 49.0084 62.0464ZM76.727 58.8456C68.2721 65.18 60.0184 66.15 53.9846 62.2702C53.2531 61.8121 52.5671 61.285 51.936 60.6959C51.1116 59.9649 50.3629 59.1524 49.7013 58.271C40.6058 46.0945 48.7925 26.3898 62.5734 16.0562C73.1439 8.1325 83.4684 8.68461 89.4651 16.7053C98.5754 28.8818 90.3962 48.5791 76.727 58.8456Z" fill="#04459D"/>
</svg>
