<svg width="20" height="20" viewBox="0 0 20 20" fill="none" xmlns="http://www.w3.org/2000/svg">
<path fill-rule="evenodd" clip-rule="evenodd" d="M16.113 6.69421C16.113 7.80633 15.6947 9.06972 14.9418 10.48C14.4624 11.3781 13.8552 12.3184 13.1493 13.2834C12.524 14.1382 11.8559 14.9659 11.1878 15.7365C10.9538 16.0064 10.7363 16.2501 10.5406 16.4639C10.4219 16.5935 10.336 16.6853 10.2882 16.7353C9.94575 17.0937 9.38772 17.0937 9.0453 16.7353C8.9975 16.6853 8.91156 16.5935 8.79288 16.4639C8.59718 16.2501 8.37966 16.0064 8.1457 15.7365C7.4776 14.9659 6.8095 14.1382 6.18421 13.2834C5.4783 12.3184 4.87107 11.3781 4.39166 10.48C3.63877 9.06972 3.22046 7.80633 3.22046 6.69421C3.22046 2.79397 6.2053 0 9.66674 0C13.1282 0 16.113 2.79397 16.113 6.69421ZM9.88659 14.52C10.5242 13.7846 11.1617 12.9947 11.7551 12.1836C12.4139 11.2829 12.9759 10.4126 13.4105 9.59848C14.0324 8.43364 14.3622 7.4376 14.3622 6.69421C14.3622 3.84265 12.1994 1.81818 9.66674 1.81818C7.13407 1.81818 4.9713 3.84265 4.9713 6.69421C4.9713 7.4376 5.30109 8.43364 5.92294 9.59848C6.35755 10.4126 6.91961 11.2829 7.57841 12.1836C8.17175 12.9947 8.80931 13.7846 9.44688 14.52C9.52208 14.6067 9.59544 14.6905 9.66674 14.7713C9.73804 14.6905 9.8114 14.6067 9.88659 14.52ZM7.19964 6.69422C7.19964 8.10916 8.3042 9.2562 9.66674 9.2562C11.0293 9.2562 12.1338 8.10916 12.1338 6.69422C12.1338 5.27927 11.0293 4.13223 9.66674 4.13223C8.3042 4.13223 7.19964 5.27927 7.19964 6.69422ZM9.66674 7.43802C10.0623 7.43802 10.383 7.10501 10.383 6.69421C10.383 6.28342 10.0623 5.95041 9.66674 5.95041C9.27116 5.95041 8.95048 6.28342 8.95048 6.69421C8.95048 7.10501 9.27116 7.43802 9.66674 7.43802ZM13.5798 14.374C13.4952 14.8683 13.8125 15.3403 14.2886 15.4281C15.4138 15.6358 16.3325 15.9152 16.9429 16.2274C17.277 16.3982 17.4495 16.5375 17.5144 16.59C17.5358 16.6073 17.5455 16.6151 17.5455 16.6116C17.5455 17.1653 13.9562 18.1818 9.66674 18.1818C5.37725 18.1818 1.78795 17.1653 1.78795 16.6116C1.78795 16.6151 1.79768 16.6073 1.81908 16.59C1.88402 16.5375 2.05645 16.3982 2.39055 16.2274C3.00096 15.9152 3.91972 15.6358 5.04491 15.4281C5.52093 15.3403 5.83824 14.8683 5.75363 14.374C5.66902 13.8796 5.21454 13.5501 4.73852 13.638C1.84507 14.1721 0.0371094 15.0966 0.0371094 16.6116C0.0371094 18.7966 4.28644 20 9.66674 20C15.047 20 19.2964 18.7966 19.2964 16.6116C19.2964 15.0966 17.4884 14.1721 14.595 13.638C14.1189 13.5501 13.6645 13.8796 13.5798 14.374Z" fill="#121212"/>
</svg>
