<svg width="234" height="293" viewBox="0 0 234 293" fill="none" xmlns="http://www.w3.org/2000/svg">
<path fill-rule="evenodd" clip-rule="evenodd" d="M117 290C181.617 290 234 237.617 234 173C234 108.383 181.617 56 117 56C52.3827 56 0 108.383 0 173C0 237.617 52.3827 290 117 290Z" fill="#E1E1E1"/>
<path d="M126.498 293L124.523 291.984C150.178 242.577 136.46 178.415 120.434 133.29C109.552 102.959 95.6728 73.7802 79 46.1829L80.8789 45C97.6383 72.7377 111.59 102.065 122.529 132.55C138.702 178.088 152.518 242.891 126.498 293Z" fill="#2F2E41"/>
<path d="M131.687 121.521L146.043 42.9574L148.219 43.3551L133.863 121.919L131.687 121.521Z" fill="#2F2E41"/>
<path d="M48.959 111.4L50.5797 109.892L124.715 189.558L123.095 191.066L48.959 111.4Z" fill="#2F2E41"/>
<path d="M146.254 249.419L183.858 197.402L185.651 198.699L148.048 250.715L146.254 249.419Z" fill="#2F2E41"/>
<path d="M153 22C159.075 22 164 17.0751 164 11C164 4.92487 159.075 0 153 0C146.925 0 142 4.92487 142 11C142 17.0751 146.925 22 153 22Z" fill="#F9D572"/>
<path d="M32 107C38.0751 107 43 102.075 43 96C43 89.9249 38.0751 85 32 85C25.9249 85 21 89.9249 21 96C21 102.075 25.9249 107 32 107Z" fill="#121212"/>
<path d="M81 118C87.0751 118 92 113.075 92 107C92 100.925 87.0751 96 81 96C74.9249 96 70 100.925 70 107C70 113.075 74.9249 118 81 118Z" fill="white"/>
<path d="M59 161C65.0751 161 70 156.075 70 150C70 143.925 65.0751 139 59 139C52.9249 139 48 143.925 48 150C48 156.075 52.9249 161 59 161Z" fill="white"/>
<path d="M197 189C203.075 189 208 184.075 208 178C208 171.925 203.075 167 197 167C190.925 167 186 171.925 186 178C186 184.075 190.925 189 197 189Z" fill="white"/>
<path d="M160 201C166.075 201 171 196.075 171 190C171 183.925 166.075 179 160 179C153.925 179 149 183.925 149 190C149 196.075 153.925 201 160 201Z" fill="#121212"/>
<path d="M186 237C192.075 237 197 232.075 197 226C197 219.925 192.075 215 186 215C179.925 215 175 219.925 175 226C175 232.075 179.925 237 186 237Z" fill="#121212"/>
<path d="M70 35C76.0751 35 81 30.0751 81 24C81 17.9249 76.0751 13 70 13C63.9249 13 59 17.9249 59 24C59 30.0751 63.9249 35 70 35Z" fill="#F9D572"/>
</svg>
