<svg width="127" height="53" viewBox="0 0 127 53" fill="none" xmlns="http://www.w3.org/2000/svg">
<path d="M25.4901 25.3766C22.5759 28.2151 19.0561 29.6344 14.9307 29.6344C10.8054 29.6344 7.2856 28.2151 4.37136 25.3766C1.45712 22.5002 0 18.9804 0 14.8172C0 10.654 1.45712 7.15313 4.37136 4.31459C7.2856 1.4382 10.8054 0 14.9307 0C19.0561 0 22.5759 1.4382 25.4901 4.31459C28.4044 7.15313 29.8615 10.654 29.8615 14.8172C29.8615 18.9804 28.4044 22.5002 25.4901 25.3766ZM10.3891 19.7563C11.6002 21.0052 13.1141 21.6297 14.9307 21.6297C16.7474 21.6297 18.2424 21.0052 19.4156 19.7563C20.6268 18.5073 21.2323 16.861 21.2323 14.8172C21.2323 12.7734 20.6268 11.1271 19.4156 9.87813C18.2424 8.62918 16.7474 8.00469 14.9307 8.00469C13.1141 8.00469 11.6002 8.62918 10.3891 9.87813C9.21581 11.1271 8.62917 12.7734 8.62917 14.8172C8.62917 16.861 9.21581 18.5073 10.3891 19.7563Z" fill="#272626"/>
<path d="M58.8652 25.3766C55.951 28.2151 52.4312 29.6344 48.3058 29.6344C44.1805 29.6344 40.6607 28.2151 37.7464 25.3766C34.8322 22.5002 33.3751 18.9804 33.3751 14.8172C33.3751 10.654 34.8322 7.15313 37.7464 4.31459C40.6607 1.4382 44.1805 0 48.3058 0C52.4312 0 55.951 1.4382 58.8652 4.31459C61.7794 7.15313 63.2365 10.654 63.2365 14.8172C63.2365 18.9804 61.7794 22.5002 58.8652 25.3766ZM43.7641 19.7563C44.9752 21.0052 46.4891 21.6297 48.3058 21.6297C50.1225 21.6297 51.6174 21.0052 52.7907 19.7563C54.0018 18.5073 54.6074 16.861 54.6074 14.8172C54.6074 12.7734 54.0018 11.1271 52.7907 9.87813C51.6174 8.62918 50.1225 8.00469 48.3058 8.00469C46.4891 8.00469 44.9752 8.62918 43.7641 9.87813C42.5909 11.1271 42.0042 12.7734 42.0042 14.8172C42.0042 16.861 42.5909 18.5073 43.7641 19.7563Z" fill="#272626"/>
<path d="M77.0824 40.875H68.51V0.624482H77.0824V3.46302C77.688 2.55469 78.6909 1.7599 80.0913 1.07865C81.4916 0.359549 83.0623 0 84.8033 0C88.4744 0 91.5779 1.45712 94.1137 4.37136C96.6873 7.2856 97.9741 10.7675 97.9741 14.8172C97.9741 18.8669 96.6873 22.3488 94.1137 25.263C91.5779 28.1773 88.4744 29.6344 84.8033 29.6344C83.0623 29.6344 81.4916 29.2938 80.0913 28.6125C78.6909 27.8934 77.688 27.0797 77.0824 26.1714V40.875ZM78.1611 19.8698C79.3722 21.1945 80.9428 21.8568 82.8731 21.8568C84.8033 21.8568 86.355 21.1945 87.5283 19.8698C88.7394 18.5452 89.3449 16.861 89.3449 14.8172C89.3449 12.7734 88.7394 11.0892 87.5283 9.76459C86.355 8.43994 84.8033 7.77761 82.8731 7.77761C80.9428 7.77761 79.3722 8.43994 78.1611 9.76459C76.9878 11.0892 76.4012 12.7734 76.4012 14.8172C76.4012 16.861 76.9878 18.5452 78.1611 19.8698Z" fill="#272626"/>
<path d="M114.794 29.6344C111.01 29.6344 107.887 28.7071 105.427 26.8526C103.005 24.9603 101.718 22.5948 101.567 19.7563H110.593C110.669 20.8538 111.123 21.7054 111.956 22.311C112.788 22.8787 113.829 23.1625 115.078 23.1625C117.198 23.1625 118.257 22.557 118.257 21.3458C118.257 20.7403 118.011 20.2861 117.519 19.9834C117.065 19.6427 116.232 19.3021 115.021 18.9615L109.287 17.4854C104.519 16.2365 102.134 13.2655 102.134 8.5724C102.134 6.03664 103.194 3.97396 105.314 2.38438C107.433 0.794793 110.328 0 113.999 0C117.254 0 119.96 0.813716 122.118 2.44115C124.313 4.03073 125.524 6.28264 125.751 9.19688H117.122C116.781 7.45591 115.684 6.58542 113.829 6.58542C111.899 6.58542 110.934 7.19098 110.934 8.40209C110.934 9.46181 111.899 10.1998 113.829 10.6162L118.995 11.9787C121.834 12.7356 123.878 13.8332 125.127 15.2714C126.376 16.7096 127 18.583 127 20.8917C127 23.5031 125.865 25.6226 123.594 27.25C121.323 28.8396 118.39 29.6344 114.794 29.6344Z" fill="#272626"/>
<path d="M10.8027 47.6844C10.8027 47.6844 18.2726 40.9615 30.9713 40.9615C43.6701 40.9615 51.1399 47.6844 51.1399 47.6844" stroke="#272626" stroke-width="8.96382" stroke-linecap="round"/>
</svg>
