<svg width="20" height="20" viewBox="0 0 20 20" fill="none" xmlns="http://www.w3.org/2000/svg">
<path fill-rule="evenodd" clip-rule="evenodd" d="M3.50004 1.50004C5.29289 -0.292808 8.11891 -0.422796 10.0616 1.11008C10.3341 1.32516 10.5784 1.57306 10.8221 1.82034C10.8648 1.86366 10.9074 1.90695 10.9502 1.95004L19.6788 10.6786C20.2436 11.2434 19.951 12.2097 19.1678 12.3663L16.2969 12.9405C16.1033 12.9792 15.9255 13.0743 15.7859 13.2139L10.1214 18.8785C8.94978 20.0501 7.05029 20.0501 5.87872 18.8785L1.12135 14.1212C-0.0502184 12.9496 -0.0502165 11.0501 1.12136 9.87853L3.0354 7.96448C1.58196 6.02573 1.73684 3.26324 3.50004 1.50004ZM4.47449 6.52539L8.52539 2.47449C7.39093 1.7881 5.89382 1.93469 4.91425 2.91425C3.93469 3.89382 3.7881 5.39093 4.47449 6.52539ZM7.29293 17.4643L2.53557 12.707C2.14505 12.3164 2.14504 11.6833 2.53557 11.2927L10 3.82828L16.9433 10.7716L15.9047 10.9793C15.3239 11.0955 14.7905 11.3809 14.3717 11.7997L8.70714 17.4643C8.31662 17.8548 7.68345 17.8548 7.29293 17.4643Z" fill="#745D1C"/>
</svg>
