<svg width="20" height="20" viewBox="0 0 20 20" fill="none" xmlns="http://www.w3.org/2000/svg">
<path fill-rule="evenodd" clip-rule="evenodd" d="M11.2717 1.66667C10.8285 1.66667 10.4692 1.29357 10.4692 0.833333C10.4692 0.373096 10.8285 0 11.2717 0C15.7039 0 19.2964 3.7306 19.2964 8.33333C19.2964 8.79357 18.9371 9.16667 18.4939 9.16667C18.0507 9.16667 17.6914 8.79357 17.6914 8.33333C17.6914 4.65107 14.8176 1.66667 11.2717 1.66667ZM13.1117 11.9107L11.2717 13.8215L5.98679 8.33333L7.82676 6.42259C8.14015 6.09715 8.14015 5.56951 7.82676 5.24408L3.81442 1.07741C3.50103 0.751974 2.99294 0.751974 2.67955 1.07741L0.272147 3.57741C0.121655 3.73369 0.0371094 3.94565 0.0371094 4.16667C0.0371094 12.9111 6.86349 20 15.284 20C15.4969 20 15.701 19.9122 15.8515 19.7559L18.2589 17.2559C18.5722 16.9305 18.5722 16.4028 18.2589 16.0774L14.2465 11.9107C13.9331 11.5853 13.425 11.5853 13.1117 11.9107ZM10.7042 15.5893C11.0176 15.9147 11.5257 15.9147 11.8391 15.5893L13.6791 13.6785L16.5566 16.6667L14.9555 18.3293C7.68231 18.1508 1.81782 12.0608 1.64593 4.50782L3.24699 2.84518L6.12447 5.83333L4.28449 7.74408C3.97111 8.06951 3.97111 8.59715 4.28449 8.92259L10.7042 15.5893ZM10.4692 4.16667C10.4692 4.6269 10.8285 5 11.2717 5C13.0441 5 14.4816 6.49274 14.4816 8.33333C14.4816 8.79357 14.8408 9.16667 15.284 9.16667C15.7272 9.16667 16.0865 8.79357 16.0865 8.33333C16.0865 5.57226 13.9305 3.33333 11.2717 3.33333C10.8285 3.33333 10.4692 3.70643 10.4692 4.16667Z" fill="#121212"/>
</svg>
