<?xml version="1.0" encoding="utf-8"?>
<!-- Generator: Adobe Illustrator 19.0.0, SVG Export Plug-In . SVG Version: 6.00 Build 0)  -->
<svg version="1.1" id="Layer_1" xmlns="http://www.w3.org/2000/svg" xmlns:xlink="http://www.w3.org/1999/xlink" x="0px" y="0px"
	 viewBox="-285 393 40 58.5" style="enable-background:new -285 393 40 58.5;" xml:space="preserve">
<style type="text/css">
	.st0{fill:#141416;}
	.st1{fill:#01459D;}
	.st2{fill:none;stroke:#FCFCFD;stroke-width:4;}
</style>
<path class="st0" d="M-277,393h24c4.4,0,8,3.6,8,8v12c0,4.4-3.6,8-8,8h-24c-4.4,0-8-3.6-8-8v-12C-285,396.6-281.4,393-277,393z"/>
<path class="st0" d="M-268.8,423.9l-3.2-3.2h12l-3.2,3.2C-264.7,425.4-267.3,425.4-268.8,423.9z"/>
<g>
	<path class="st1" d="M-266,427L-266,427c6.6,0,12,5.4,12,12l0,0c0,6.6-5.4,12-12,12l0,0c-6.6,0-12-5.4-12-12l0,0
		C-278,432.4-272.6,427-266,427z"/>
	<path class="st2" d="M-266,429L-266,429c5.5,0,10,4.5,10,10l0,0c0,5.5-4.5,10-10,10l0,0c-5.5,0-10-4.5-10-10l0,0
		C-276,433.5-271.5,429-266,429z"/>
</g>
</svg>
