<svg width="164" height="50" viewBox="0 0 164 50" fill="none" xmlns="http://www.w3.org/2000/svg">
<rect width="163.551" height="49.2827" rx="8" fill="#121212"/>
<g clip-path="url(#clip0_4493_18214)">
<path d="M37.3386 12.1223H27.6615C26.7354 12.1223 25.9878 12.8733 25.9878 13.7977V33.4486C25.9878 34.3722 26.7354 35.1223 27.6615 35.1223H37.3386C38.2631 35.1223 39.0124 34.3722 39.0124 33.4486V13.7977C39.0124 12.8733 38.2631 12.1223 37.3386 12.1223ZM30.1122 13.1398H34.8896C35.0103 13.1398 35.1083 13.32 35.1083 13.5429C35.1083 13.7659 35.0103 13.9469 34.8896 13.9469H30.1122C29.9907 13.9469 29.8943 13.7659 29.8943 13.5429C29.8943 13.32 29.9907 13.1398 30.1122 13.1398ZM32.5009 33.4687C31.9117 33.4687 31.4323 32.9893 31.4323 32.3992C31.4323 31.8092 31.9117 31.3314 32.5009 31.3314C33.0884 31.3314 33.5679 31.8092 33.5679 32.3992C33.5679 32.9893 33.0884 33.4687 32.5009 33.4687ZM37.7585 29.8069H27.2425V14.9493H37.7585V29.8069Z" fill="white"/>
</g>
<path d="M71.5497 29.2472H69.3338C69.2486 28.7737 69.09 28.3571 68.858 27.9972C68.6259 27.6374 68.3419 27.332 68.0057 27.081C67.6695 26.8301 67.2931 26.6407 66.8764 26.5128C66.4645 26.385 66.0265 26.3211 65.5625 26.3211C64.7244 26.3211 63.974 26.5318 63.3111 26.9532C62.6529 27.3746 62.1321 27.9925 61.7486 28.8069C61.3698 29.6213 61.1804 30.6156 61.1804 31.7898C61.1804 32.9735 61.3698 33.9726 61.7486 34.787C62.1321 35.6014 62.6553 36.2169 63.3182 36.6336C63.9811 37.0502 64.7268 37.2586 65.5554 37.2586C66.0147 37.2586 66.4503 37.197 66.8622 37.0739C67.2789 36.9461 67.6553 36.7591 67.9915 36.5128C68.3277 36.2666 68.6117 35.966 68.8438 35.6109C69.0805 35.251 69.2438 34.8391 69.3338 34.3751L71.5497 34.3822C71.4313 35.0971 71.2017 35.7553 70.8608 36.3566C70.5246 36.9532 70.0914 37.4693 69.5611 37.9049C69.0355 38.3358 68.4342 38.6696 67.7571 38.9063C67.08 39.143 66.3414 39.2614 65.5412 39.2614C64.2817 39.2614 63.1596 38.9631 62.1747 38.3665C61.1899 37.7652 60.4134 36.9058 59.8452 35.7884C59.2817 34.671 59 33.3381 59 31.7898C59 30.2368 59.2841 28.9039 59.8523 27.7912C60.4205 26.6738 61.197 25.8168 62.1818 25.2202C63.1667 24.6189 64.2865 24.3182 65.5412 24.3182C66.313 24.3182 67.0327 24.4295 67.7003 24.652C68.3726 24.8698 68.9763 25.1918 69.5114 25.618C70.0464 26.0394 70.4891 26.5555 70.8395 27.1662C71.1899 27.7723 71.4266 28.466 71.5497 29.2472Z" fill="white"/>
<path d="M78.6005 39.2827C77.5778 39.2827 76.6853 39.0484 75.9229 38.5796C75.1606 38.1109 74.5688 37.4551 74.1474 36.6123C73.726 35.7695 73.5153 34.7846 73.5153 33.6577C73.5153 32.5261 73.726 31.5365 74.1474 30.689C74.5688 29.8414 75.1606 29.1833 75.9229 28.7145C76.6853 28.2458 77.5778 28.0114 78.6005 28.0114C79.6232 28.0114 80.5157 28.2458 81.2781 28.7145C82.0404 29.1833 82.6322 29.8414 83.0536 30.689C83.475 31.5365 83.6857 32.5261 83.6857 33.6577C83.6857 34.7846 83.475 35.7695 83.0536 36.6123C82.6322 37.4551 82.0404 38.1109 81.2781 38.5796C80.5157 39.0484 79.6232 39.2827 78.6005 39.2827ZM78.6076 37.5001C79.2705 37.5001 79.8197 37.3249 80.2553 36.9745C80.6909 36.6241 81.0129 36.1577 81.2212 35.5753C81.4343 34.993 81.5408 34.3514 81.5408 33.6506C81.5408 32.9546 81.4343 32.3154 81.2212 31.733C81.0129 31.1459 80.6909 30.6748 80.2553 30.3197C79.8197 29.9645 79.2705 29.787 78.6076 29.787C77.94 29.787 77.386 29.9645 76.9457 30.3197C76.5101 30.6748 76.1857 31.1459 75.9727 31.733C75.7643 32.3154 75.6602 32.9546 75.6602 33.6506C75.6602 34.3514 75.7643 34.993 75.9727 35.5753C76.1857 36.1577 76.5101 36.6241 76.9457 36.9745C77.386 37.3249 77.94 37.5001 78.6076 37.5001Z" fill="white"/>
<path d="M88.1797 32.5853V39.0626H86.0561V28.1535H88.0945V29.929H88.2294C88.4804 29.3514 88.8733 28.8874 89.4084 28.537C89.9482 28.1866 90.6276 28.0114 91.4467 28.0114C92.1901 28.0114 92.8411 28.1677 93.3999 28.4802C93.9586 28.7879 94.3918 29.2472 94.6996 29.858C95.0073 30.4688 95.1612 31.224 95.1612 32.1236V39.0626H93.0376V32.3793C93.0376 31.5886 92.8317 30.9707 92.4197 30.5256C92.0078 30.0758 91.442 29.8509 90.7223 29.8509C90.2299 29.8509 89.7919 29.9574 89.4084 30.1705C89.0296 30.3836 88.7289 30.6961 88.5064 31.108C88.2886 31.5152 88.1797 32.0076 88.1797 32.5853Z" fill="white"/>
<path d="M100.133 32.5853V39.0626H98.0092V28.1535H100.048V29.929H100.183C100.433 29.3514 100.826 28.8874 101.362 28.537C101.901 28.1866 102.581 28.0114 103.4 28.0114C104.143 28.0114 104.794 28.1677 105.353 28.4802C105.912 28.7879 106.345 29.2472 106.653 29.858C106.96 30.4688 107.114 31.224 107.114 32.1236V39.0626H104.991V32.3793C104.991 31.5886 104.785 30.9707 104.373 30.5256C103.961 30.0758 103.395 29.8509 102.675 29.8509C102.183 29.8509 101.745 29.9574 101.362 30.1705C100.983 30.3836 100.682 30.6961 100.46 31.108C100.242 31.5152 100.133 32.0076 100.133 32.5853Z" fill="white"/>
<path d="M114.558 39.2827C113.502 39.2827 112.593 39.0436 111.83 38.5654C111.073 38.0824 110.49 37.4172 110.083 36.5697C109.676 35.7221 109.472 34.7515 109.472 33.6577C109.472 32.5498 109.681 31.572 110.097 30.7245C110.514 29.8722 111.101 29.207 111.859 28.7287C112.616 28.2505 113.509 28.0114 114.536 28.0114C115.365 28.0114 116.103 28.1653 116.752 28.4731C117.401 28.7761 117.924 29.2022 118.322 29.7515C118.724 30.3007 118.963 30.9423 119.039 31.6762H116.972C116.859 31.1648 116.598 30.7245 116.191 30.3552C115.789 29.9859 115.249 29.8012 114.572 29.8012C113.98 29.8012 113.461 29.9574 113.016 30.2699C112.576 30.5777 112.233 31.018 111.987 31.591C111.74 32.1591 111.617 32.8315 111.617 33.608C111.617 34.4035 111.738 35.09 111.979 35.6677C112.221 36.2453 112.562 36.6928 113.002 37.01C113.447 37.3272 113.97 37.4859 114.572 37.4859C114.974 37.4859 115.339 37.4125 115.665 37.2657C115.997 37.1142 116.274 36.8987 116.496 36.6194C116.724 36.34 116.882 36.0038 116.972 35.6109H119.039C118.963 36.3163 118.734 36.9461 118.35 37.5001C117.967 38.054 117.453 38.4896 116.809 38.8069C116.17 39.1241 115.419 39.2827 114.558 39.2827Z" fill="white"/>
<path d="M126.402 28.1535V29.858H120.444V28.1535H126.402ZM122.042 25.5398H124.165V35.8594C124.165 36.2714 124.227 36.5815 124.35 36.7898C124.473 36.9934 124.632 37.1331 124.826 37.2089C125.025 37.2799 125.24 37.3154 125.472 37.3154C125.642 37.3154 125.792 37.3036 125.919 37.2799C126.047 37.2562 126.147 37.2373 126.218 37.2231L126.601 38.9773C126.478 39.0247 126.303 39.072 126.076 39.1194C125.848 39.1715 125.564 39.1999 125.223 39.2046C124.665 39.2141 124.144 39.1146 123.661 38.9063C123.178 38.698 122.787 38.376 122.489 37.9404C122.191 37.5048 122.042 36.9579 122.042 36.2998V25.5398Z" fill="white"/>
<path d="M61.3544 17.2727H59V10H61.429C62.1416 10 62.7536 10.1456 63.2649 10.4368C63.7763 10.7256 64.1681 11.1411 64.4403 11.6832C64.715 12.223 64.8523 12.8705 64.8523 13.6257C64.8523 14.3833 64.7138 15.0343 64.4368 15.5788C64.1622 16.1233 63.7644 16.5424 63.2436 16.8359C62.7228 17.1271 62.093 17.2727 61.3544 17.2727ZM60.0973 16.3139H61.294C61.848 16.3139 62.3085 16.2098 62.6754 16.0014C63.0424 15.7907 63.317 15.4865 63.4993 15.0888C63.6816 14.6887 63.7727 14.201 63.7727 13.6257C63.7727 13.0552 63.6816 12.571 63.4993 12.1733C63.3194 11.7756 63.0507 11.4737 62.6932 11.2678C62.3357 11.0618 61.8918 10.9588 61.3615 10.9588H60.0973V16.3139Z" fill="white"/>
<path d="M68.4292 17.3828C67.9178 17.3828 67.4715 17.2656 67.0904 17.0312C66.7092 16.7969 66.4133 16.469 66.2026 16.0476C65.9919 15.6262 65.8865 15.1338 65.8865 14.5703C65.8865 14.0045 65.9919 13.5097 66.2026 13.0859C66.4133 12.6622 66.7092 12.3331 67.0904 12.0987C67.4715 11.8643 67.9178 11.7472 68.4292 11.7472C68.9405 11.7472 69.3868 11.8643 69.7679 12.0987C70.1491 12.3331 70.445 12.6622 70.6557 13.0859C70.8664 13.5097 70.9718 14.0045 70.9718 14.5703C70.9718 15.1338 70.8664 15.6262 70.6557 16.0476C70.445 16.469 70.1491 16.7969 69.7679 17.0312C69.3868 17.2656 68.9405 17.3828 68.4292 17.3828ZM68.4327 16.4915C68.7641 16.4915 69.0388 16.4039 69.2566 16.2287C69.4744 16.0535 69.6354 15.8203 69.7395 15.5291C69.8461 15.2379 69.8993 14.9171 69.8993 14.5668C69.8993 14.2188 69.8461 13.8991 69.7395 13.608C69.6354 13.3144 69.4744 13.0788 69.2566 12.9013C69.0388 12.7237 68.7641 12.6349 68.4327 12.6349C68.0989 12.6349 67.8219 12.7237 67.6017 12.9013C67.3839 13.0788 67.2218 13.3144 67.1152 13.608C67.0111 13.8991 66.959 14.2188 66.959 14.5668C66.959 14.9171 67.0111 15.2379 67.1152 15.5291C67.2218 15.8203 67.3839 16.0535 67.6017 16.2287C67.8219 16.4039 68.0989 16.4915 68.4327 16.4915Z" fill="white"/>
<path d="M73.1735 17.2727L71.5684 11.8182H72.6657L73.7346 15.8239H73.7878L74.8603 11.8182H75.9576L77.0229 15.8061H77.0762L78.138 11.8182H79.2353L77.6337 17.2727H76.5506L75.4426 13.3345H75.361L74.253 17.2727H73.1735Z" fill="white"/>
<path d="M81.3047 14.0341V17.2727H80.2429V11.8182H81.2621V12.706H81.3295C81.455 12.4171 81.6515 12.1851 81.919 12.0099C82.1889 11.8348 82.5286 11.7472 82.9382 11.7472C83.3099 11.7472 83.6354 11.8253 83.9148 11.9815C84.1941 12.1354 84.4107 12.3651 84.5646 12.6705C84.7185 12.9759 84.7955 13.3535 84.7955 13.8033V17.2727H83.7337V13.9311C83.7337 13.5357 83.6307 13.2268 83.4247 13.0043C83.2187 12.7794 82.9358 12.6669 82.576 12.6669C82.3298 12.6669 82.1108 12.7202 81.919 12.8267C81.7296 12.9332 81.5793 13.0895 81.468 13.2955C81.3591 13.4991 81.3047 13.7453 81.3047 14.0341Z" fill="white"/>
<path d="M87.2812 10V17.2727H86.2195V10H87.2812Z" fill="white"/>
<path d="M91.0073 17.3828C90.4959 17.3828 90.0497 17.2656 89.6685 17.0312C89.2873 16.7969 88.9914 16.469 88.7807 16.0476C88.57 15.6262 88.4647 15.1338 88.4647 14.5703C88.4647 14.0045 88.57 13.5097 88.7807 13.0859C88.9914 12.6622 89.2873 12.3331 89.6685 12.0987C90.0497 11.8643 90.4959 11.7472 91.0073 11.7472C91.5186 11.7472 91.9649 11.8643 92.3461 12.0987C92.7272 12.3331 93.0231 12.6622 93.2338 13.0859C93.4445 13.5097 93.5499 14.0045 93.5499 14.5703C93.5499 15.1338 93.4445 15.6262 93.2338 16.0476C93.0231 16.469 92.7272 16.7969 92.3461 17.0312C91.9649 17.2656 91.5186 17.3828 91.0073 17.3828ZM91.0108 16.4915C91.3423 16.4915 91.6169 16.4039 91.8347 16.2287C92.0525 16.0535 92.2135 15.8203 92.3176 15.5291C92.4242 15.2379 92.4775 14.9171 92.4775 14.5668C92.4775 14.2188 92.4242 13.8991 92.3176 13.608C92.2135 13.3144 92.0525 13.0788 91.8347 12.9013C91.6169 12.7237 91.3423 12.6349 91.0108 12.6349C90.677 12.6349 90.4 12.7237 90.1799 12.9013C89.9621 13.0788 89.7999 13.3144 89.6934 13.608C89.5892 13.8991 89.5371 14.2188 89.5371 14.5668C89.5371 14.9171 89.5892 15.2379 89.6934 15.5291C89.7999 15.8203 89.9621 16.0535 90.1799 16.2287C90.4 16.4039 90.677 16.4915 91.0108 16.4915Z" fill="white"/>
<path d="M96.3224 17.3935C95.9768 17.3935 95.6643 17.3295 95.3849 17.2017C95.1056 17.0715 94.8842 16.8833 94.7209 16.6371C94.5599 16.3909 94.4794 16.089 94.4794 15.7315C94.4794 15.4238 94.5386 15.1705 94.657 14.9716C94.7753 14.7727 94.9351 14.6153 95.1364 14.4993C95.3376 14.3833 95.5625 14.2957 95.8111 14.2365C96.0597 14.1773 96.313 14.1323 96.571 14.1016C96.8977 14.0637 97.1629 14.0329 97.3665 14.0092C97.5701 13.9832 97.718 13.9418 97.8104 13.8849C97.9027 13.8281 97.9489 13.7358 97.9489 13.608V13.5831C97.9489 13.273 97.8613 13.0327 97.6861 12.8622C97.5133 12.6918 97.2552 12.6065 96.9119 12.6065C96.5544 12.6065 96.2727 12.6858 96.0668 12.8445C95.8632 13.0007 95.7223 13.1747 95.6442 13.3665L94.6463 13.1392C94.7647 12.8078 94.9375 12.5402 95.1648 12.3366C95.3944 12.1307 95.6584 11.9815 95.9567 11.8892C96.255 11.7945 96.5687 11.7472 96.8977 11.7472C97.1155 11.7472 97.3464 11.7732 97.5902 11.8253C97.8364 11.875 98.066 11.9673 98.2791 12.1023C98.4946 12.2372 98.6709 12.4302 98.8082 12.6811C98.9455 12.9297 99.0142 13.2528 99.0142 13.6506V17.2727H97.9773V16.527H97.9347C97.866 16.6643 97.763 16.7992 97.6257 16.9318C97.4884 17.0644 97.312 17.1745 97.0966 17.2621C96.8812 17.3497 96.6231 17.3935 96.3224 17.3935ZM96.5533 16.5412C96.8468 16.5412 97.0978 16.4832 97.3061 16.3672C97.5168 16.2512 97.6766 16.0997 97.7855 15.9126C97.8968 15.7232 97.9524 15.5208 97.9524 15.3054V14.6023C97.9145 14.6402 97.8411 14.6757 97.7322 14.7088C97.6257 14.7396 97.5038 14.7668 97.3665 14.7905C97.2292 14.8118 97.0954 14.8319 96.9652 14.8509C96.835 14.8674 96.7261 14.8816 96.6385 14.8935C96.4325 14.9195 96.2443 14.9633 96.0739 15.0249C95.9058 15.0864 95.7708 15.1752 95.669 15.2912C95.5696 15.4048 95.5199 15.5563 95.5199 15.7457C95.5199 16.0085 95.617 16.2074 95.8111 16.3423C96.0052 16.4749 96.2526 16.5412 96.5533 16.5412Z" fill="white"/>
<path d="M102.47 17.3793C102.03 17.3793 101.637 17.2668 101.291 17.0419C100.948 16.8146 100.678 16.4915 100.482 16.0724C100.288 15.651 100.191 15.1456 100.191 14.5561C100.191 13.9666 100.289 13.4624 100.485 13.0433C100.684 12.6243 100.956 12.3035 101.302 12.081C101.648 11.8584 102.039 11.7472 102.477 11.7472C102.816 11.7472 103.088 11.804 103.294 11.9176C103.503 12.0289 103.664 12.1591 103.777 12.3082C103.893 12.4574 103.983 12.5888 104.047 12.7024H104.111V10H105.173V17.2727H104.136V16.424H104.047C103.983 16.54 103.891 16.6726 103.77 16.8217C103.652 16.9709 103.488 17.1011 103.28 17.2124C103.072 17.3236 102.802 17.3793 102.47 17.3793ZM102.705 16.4737C103.01 16.4737 103.268 16.3932 103.479 16.2322C103.692 16.0689 103.853 15.8428 103.962 15.554C104.073 15.2652 104.129 14.929 104.129 14.5455C104.129 14.1667 104.074 13.8352 103.965 13.5511C103.856 13.267 103.697 13.0457 103.486 12.8871C103.275 12.7285 103.015 12.6491 102.705 12.6491C102.385 12.6491 102.119 12.732 101.906 12.8977C101.693 13.0634 101.532 13.2895 101.423 13.576C101.316 13.8625 101.263 14.1856 101.263 14.5455C101.263 14.91 101.317 15.2379 101.426 15.5291C101.535 15.8203 101.696 16.0511 101.909 16.2216C102.125 16.3897 102.39 16.4737 102.705 16.4737Z" fill="white"/>
<path d="M111.881 11.8182V12.6705H108.901V11.8182H111.881ZM109.7 10.5114H110.762V15.6712C110.762 15.8771 110.793 16.0322 110.855 16.1364C110.916 16.2382 110.995 16.308 111.093 16.3459C111.192 16.3814 111.3 16.3991 111.416 16.3991C111.501 16.3991 111.575 16.3932 111.639 16.3814C111.703 16.3696 111.753 16.3601 111.789 16.353L111.98 17.2301C111.919 17.2538 111.831 17.2775 111.718 17.3011C111.604 17.3272 111.462 17.3414 111.291 17.3438C111.012 17.3485 110.752 17.2988 110.51 17.1946C110.269 17.0904 110.073 16.9295 109.924 16.7116C109.775 16.4938 109.7 16.2204 109.7 15.8913V10.5114Z" fill="white"/>
<path d="M114.234 14.0341V17.2727H113.173V10H114.22V12.706H114.288C114.415 12.4124 114.611 12.1792 114.874 12.0064C115.136 11.8336 115.48 11.7472 115.903 11.7472C116.277 11.7472 116.604 11.8241 116.884 11.978C117.165 12.1319 117.383 12.3615 117.537 12.6669C117.693 12.9699 117.771 13.3487 117.771 13.8033V17.2727H116.71V13.9311C116.71 13.531 116.607 13.2209 116.401 13.0007C116.195 12.7782 115.908 12.6669 115.541 12.6669C115.29 12.6669 115.065 12.7202 114.866 12.8267C114.67 12.9332 114.515 13.0895 114.401 13.2955C114.29 13.4991 114.234 13.7453 114.234 14.0341Z" fill="white"/>
<path d="M121.539 17.3828C121.002 17.3828 120.539 17.268 120.151 17.0384C119.765 16.8063 119.466 16.4808 119.256 16.0618C119.047 15.6404 118.943 15.1468 118.943 14.581C118.943 14.0223 119.047 13.5298 119.256 13.1037C119.466 12.6776 119.76 12.3449 120.136 12.1058C120.515 11.8667 120.958 11.7472 121.464 11.7472C121.772 11.7472 122.071 11.7981 122.359 11.8999C122.648 12.0017 122.907 12.1615 123.137 12.3793C123.367 12.5971 123.548 12.88 123.68 13.228C123.813 13.5736 123.879 13.9938 123.879 14.4886V14.8651H119.543V14.0696H122.839C122.839 13.7902 122.782 13.5429 122.668 13.3274C122.555 13.1096 122.395 12.938 122.189 12.8125C121.985 12.687 121.746 12.6243 121.472 12.6243C121.173 12.6243 120.913 12.6977 120.69 12.8445C120.47 12.9889 120.3 13.1783 120.179 13.4126C120.061 13.6446 120.001 13.8968 120.001 14.169V14.7905C120.001 15.1551 120.065 15.4652 120.193 15.7209C120.323 15.9766 120.504 16.1719 120.737 16.3068C120.969 16.4394 121.24 16.5057 121.55 16.5057C121.751 16.5057 121.934 16.4773 122.1 16.4205C122.266 16.3613 122.409 16.2737 122.53 16.1577C122.651 16.0417 122.743 15.8984 122.807 15.728L123.812 15.9091C123.731 16.205 123.587 16.4643 123.379 16.6868C123.173 16.907 122.913 17.0786 122.601 17.2017C122.291 17.3224 121.937 17.3828 121.539 17.3828Z" fill="white"/>
<path d="M129.291 17.3935C128.946 17.3935 128.633 17.3295 128.354 17.2017C128.074 17.0715 127.853 16.8833 127.69 16.6371C127.529 16.3909 127.448 16.089 127.448 15.7315C127.448 15.4238 127.507 15.1705 127.626 14.9716C127.744 14.7727 127.904 14.6153 128.105 14.4993C128.306 14.3833 128.531 14.2957 128.78 14.2365C129.028 14.1773 129.282 14.1323 129.54 14.1016C129.866 14.0637 130.132 14.0329 130.335 14.0092C130.539 13.9832 130.687 13.9418 130.779 13.8849C130.871 13.8281 130.918 13.7358 130.918 13.608V13.5831C130.918 13.273 130.83 13.0327 130.655 12.8622C130.482 12.6918 130.224 12.6065 129.881 12.6065C129.523 12.6065 129.241 12.6858 129.036 12.8445C128.832 13.0007 128.691 13.1747 128.613 13.3665L127.615 13.1392C127.733 12.8078 127.906 12.5402 128.134 12.3366C128.363 12.1307 128.627 11.9815 128.925 11.8892C129.224 11.7945 129.537 11.7472 129.866 11.7472C130.084 11.7472 130.315 11.7732 130.559 11.8253C130.805 11.875 131.035 11.9673 131.248 12.1023C131.463 12.2372 131.64 12.4302 131.777 12.6811C131.914 12.9297 131.983 13.2528 131.983 13.6506V17.2727H130.946V16.527H130.903C130.835 16.6643 130.732 16.7992 130.594 16.9318C130.457 17.0644 130.281 17.1745 130.065 17.2621C129.85 17.3497 129.592 17.3935 129.291 17.3935ZM129.522 16.5412C129.816 16.5412 130.067 16.4832 130.275 16.3672C130.486 16.2512 130.645 16.0997 130.754 15.9126C130.866 15.7232 130.921 15.5208 130.921 15.3054V14.6023C130.883 14.6402 130.81 14.6757 130.701 14.7088C130.594 14.7396 130.473 14.7668 130.335 14.7905C130.198 14.8118 130.064 14.8319 129.934 14.8509C129.804 14.8674 129.695 14.8816 129.607 14.8935C129.401 14.9195 129.213 14.9633 129.043 15.0249C128.875 15.0864 128.74 15.1752 128.638 15.2912C128.538 15.4048 128.489 15.5563 128.489 15.7457C128.489 16.0085 128.586 16.2074 128.78 16.3423C128.974 16.4749 129.221 16.5412 129.522 16.5412Z" fill="white"/>
<path d="M133.397 19.3182V11.8182H134.434V12.7024H134.523C134.584 12.5888 134.673 12.4574 134.789 12.3082C134.905 12.1591 135.066 12.0289 135.272 11.9176C135.478 11.804 135.75 11.7472 136.089 11.7472C136.529 11.7472 136.922 11.8584 137.268 12.081C137.614 12.3035 137.885 12.6243 138.081 13.0433C138.28 13.4624 138.379 13.9666 138.379 14.5561C138.379 15.1456 138.281 15.651 138.085 16.0724C137.888 16.4915 137.618 16.8146 137.275 17.0419C136.932 17.2668 136.54 17.3793 136.1 17.3793C135.768 17.3793 135.497 17.3236 135.286 17.2124C135.078 17.1011 134.915 16.9709 134.796 16.8217C134.678 16.6726 134.587 16.54 134.523 16.424H134.459V19.3182H133.397ZM134.438 14.5455C134.438 14.929 134.493 15.2652 134.605 15.554C134.716 15.8428 134.877 16.0689 135.088 16.2322C135.298 16.3932 135.556 16.4737 135.862 16.4737C136.179 16.4737 136.444 16.3897 136.657 16.2216C136.87 16.0511 137.031 15.8203 137.14 15.5291C137.251 15.2379 137.307 14.91 137.307 14.5455C137.307 14.1856 137.253 13.8625 137.144 13.576C137.037 13.2895 136.876 13.0634 136.661 12.8977C136.448 12.732 136.181 12.6491 135.862 12.6491C135.554 12.6491 135.294 12.7285 135.08 12.8871C134.87 13.0457 134.71 13.267 134.601 13.5511C134.492 13.8352 134.438 14.1667 134.438 14.5455Z" fill="white"/>
<path d="M139.569 19.3182V11.8182H140.606V12.7024H140.695C140.756 12.5888 140.845 12.4574 140.961 12.3082C141.077 12.1591 141.238 12.0289 141.444 11.9176C141.65 11.804 141.922 11.7472 142.261 11.7472C142.701 11.7472 143.094 11.8584 143.44 12.081C143.785 12.3035 144.057 12.6243 144.253 13.0433C144.452 13.4624 144.551 13.9666 144.551 14.5561C144.551 15.1456 144.453 15.651 144.257 16.0724C144.06 16.4915 143.79 16.8146 143.447 17.0419C143.104 17.2668 142.712 17.3793 142.271 17.3793C141.94 17.3793 141.669 17.3236 141.458 17.2124C141.25 17.1011 141.087 16.9709 140.968 16.8217C140.85 16.6726 140.759 16.54 140.695 16.424H140.631V19.3182H139.569ZM140.61 14.5455C140.61 14.929 140.665 15.2652 140.776 15.554C140.888 15.8428 141.049 16.0689 141.259 16.2322C141.47 16.3932 141.728 16.4737 142.034 16.4737C142.351 16.4737 142.616 16.3897 142.829 16.2216C143.042 16.0511 143.203 15.8203 143.312 15.5291C143.423 15.2379 143.479 14.91 143.479 14.5455C143.479 14.1856 143.424 13.8625 143.316 13.576C143.209 13.2895 143.048 13.0634 142.833 12.8977C142.619 12.732 142.353 12.6491 142.034 12.6491C141.726 12.6491 141.465 12.7285 141.252 12.8871C141.042 13.0457 140.882 13.267 140.773 13.5511C140.664 13.8352 140.61 14.1667 140.61 14.5455Z" fill="white"/>
<defs>
<clipPath id="clip0_4493_18214">
<rect width="23" height="23" fill="white" transform="translate(21 12.1223)"/>
</clipPath>
</defs>
</svg>
