<svg width="23" height="30" viewBox="0 0 23 30" fill="none" xmlns="http://www.w3.org/2000/svg">
<path d="M13.287 13.8481V13.0738C13.287 12.0973 12.4891 11.2991 11.5122 11.2991H11.4882C10.5117 11.2991 9.71371 12.097 9.71371 13.0738V13.8481C9.36243 14.0565 9.11816 14.4375 9.11816 14.8723V17.2545C9.11816 17.9157 9.65415 18.4456 10.3092 18.4456H12.6914C13.3465 18.4456 13.8825 17.9156 13.8825 17.2545V14.8723C13.8825 14.4375 13.6382 14.0565 13.287 13.8481H13.287ZM12.0959 13.6813H10.9048V13.0739C10.9048 12.7524 11.1668 12.4902 11.4885 12.4902H11.5124C11.8339 12.4902 12.0959 12.7521 12.0959 13.0739L12.0959 13.6813Z" fill="#121212"/>
<path d="M23 11.7517V5.81421C23 5.6416 22.9286 5.48666 22.8095 5.37361C22.6843 5.26032 22.5175 5.20076 22.3507 5.21844C17.9498 5.62927 14.5551 4.00365 11.9942 0.245661C11.7679 -0.081887 11.2319 -0.081887 11.0055 0.245661C8.44469 4.00365 5.05618 5.62924 0.649046 5.21844C0.476202 5.20052 0.315447 5.26008 0.190526 5.37337C0.0714176 5.48643 0 5.64137 0 5.81398V11.7515C0 19.3804 4.06154 26.3363 10.3505 29.4689L11.2259 29.9097C11.2378 29.9155 11.2499 29.9155 11.2617 29.9216C11.339 29.9574 11.4223 29.9753 11.4997 29.9753C11.583 29.9753 11.6605 29.9574 11.744 29.9218C11.75 29.9157 11.7619 29.9157 11.7679 29.9099L12.6494 29.4691C18.9377 26.3364 22.9999 19.3806 22.9999 11.7517H23ZM11.5001 22.0189C7.55765 22.0189 4.35357 18.8148 4.35357 14.8723C4.35357 10.9357 7.55765 7.72584 11.5001 7.72584C15.4425 7.72584 18.6466 10.9357 18.6466 14.8723C18.6466 18.8148 15.4425 22.0189 11.5001 22.0189Z" fill="#121212"/>
</svg>
