<svg width="40" height="41" viewBox="0 0 40 41" fill="none" xmlns="http://www.w3.org/2000/svg">
<path fill-rule="evenodd" clip-rule="evenodd" d="M22.0909 15.5543C22.4968 15.1797 23.1294 15.205 23.504 15.6108L26.7348 19.1107C27.0884 19.4938 27.0884 20.0842 26.7348 20.4673L23.504 23.9673C23.1294 24.3732 22.4968 24.3985 22.091 24.0239C21.6851 23.6493 21.6598 23.0166 22.0344 22.6108L23.716 20.789L14 20.789C13.4477 20.789 13 20.3413 13 19.789C13 19.2367 13.4477 18.789 14 18.789L23.716 18.789L22.0344 16.9674C21.6598 16.5615 21.6851 15.9289 22.0909 15.5543Z" fill="white"/>
<rect x="1" y="1.28906" width="38" height="38" rx="11" stroke="#E1E1E1" stroke-width="2"/>
</svg>
