<svg width="69" height="48" viewBox="0 0 69 48" fill="none" xmlns="http://www.w3.org/2000/svg">
<path d="M64.1927 13.3583C58.5125 5.75055 49.8902 2.80363 41.7531 5.3566C40.8928 4.65376 39.9977 3.99465 39.0714 3.38176C37.9221 2.58875 34.8419 1.22785 31.5575 0.624137C28.6646 0.0497865 25.7064 -0.122373 22.7666 0.112519C16.591 0.557626 11.0845 2.84456 6.78867 6.87611C2.49282 10.9077 -0.188897 17.2978 0.000100116 24.8902C0.228276 31.2594 2.8457 37.3082 7.33012 41.8298C11.8252 46.3372 18.9407 48.8236 26.7917 47.7492C29.9199 47.2663 32.8784 46.0089 35.3987 44.0912C35.7818 43.7996 36.1394 43.5028 36.4663 43.201C43.5562 48.2609 52.6843 48.3171 60.3463 42.6024C70.072 35.3016 71.4716 23.0995 64.1927 13.3583ZM33.6058 42.5461C30.0763 43.8547 26.2476 44.1287 22.5682 43.3358C18.8888 42.5429 15.5113 40.7161 12.8315 38.0694C9.00555 34.3039 6.86018 29.3975 6.39024 23.2786C6.00336 19.13 6.55328 14.9475 7.99927 11.0407C9.40908 7.4133 11.5749 4.79382 14.3741 3.1106C19.0071 0.424606 23.9057 0.286469 29.2078 2.70642C31.8858 3.97109 34.2683 5.78567 36.2007 8.03236C35.8278 8.27282 35.46 8.54398 35.0973 8.8049C25.3921 16.0955 23.967 28.3078 31.2459 38.049C32.3165 39.4931 33.5449 40.8127 34.9083 41.9833C34.4997 42.1828 34.0655 42.3721 33.6058 42.5461ZM52.6128 40.3513C46.8152 44.6949 41.1555 45.36 37.018 42.6996C36.5164 42.3855 36.046 42.024 35.6133 41.6201C35.048 41.1188 34.5346 40.5617 34.0809 39.9573C27.844 31.6077 33.4577 18.0959 42.9075 11.01C50.1558 5.5766 57.2355 5.95519 61.3475 11.4551C67.5946 19.8047 61.986 33.3114 52.6128 40.3513Z" fill="white"/>
</svg>
