<svg width="24" height="24" viewBox="0 0 24 24" fill="none" xmlns="http://www.w3.org/2000/svg">
<path d="M16.8987 17.0407C17.2281 16.7896 17.2916 16.319 17.0405 15.9895C16.7894 15.6601 16.3188 15.5966 15.9894 15.8477L16.8987 17.0407ZM12 17.9854V18.7355L12.0122 18.7353L12 17.9854ZM8.0111 8.15218C8.3403 7.9008 8.40339 7.43013 8.152 7.10093C7.90062 6.77172 7.42995 6.70863 7.10074 6.96002L8.0111 8.15218ZM4.29224 12.8927L4.92368 12.488L4.29224 12.8927ZM4.29406 11.1062L4.92646 11.5094L4.29406 11.1062ZM10.2579 5.46409C9.85461 5.55849 9.60419 5.96197 9.69859 6.36528C9.793 6.76859 10.1965 7.01901 10.5998 6.92461L10.2579 5.46409ZM12 6.01479L11.9982 6.76479H12V6.01479ZM18.0398 13.9038C17.7731 14.2207 17.8139 14.6938 18.1308 14.9605C18.4477 15.2272 18.9209 15.1865 19.1876 14.8696L18.0398 13.9038ZM19.7088 11.1093L19.0773 11.5139L19.7088 11.1093ZM19.7085 12.8931L20.3417 13.2951L19.7085 12.8931ZM14.1348 14.0974C14.4171 13.7943 14.4004 13.3198 14.0973 13.0374C13.7943 12.755 13.3197 12.7718 13.0373 13.0748L14.1348 14.0974ZM10.9252 10.9626C11.2282 10.6802 11.245 10.2057 10.9626 9.90262C10.6802 9.59958 10.2056 9.58282 9.90257 9.8652L10.9252 10.9626ZM15.9894 15.8477C14.8378 16.7255 13.4355 17.2118 11.9877 17.2355L12.0122 18.7353C13.7802 18.7064 15.4925 18.1126 16.8987 17.0407L15.9894 15.8477ZM12 17.2354C10.2466 17.2354 8.74975 16.4792 7.53722 15.4848C6.32241 14.4885 5.43512 13.286 4.92368 12.488L3.6608 13.2974C4.21865 14.1678 5.20459 15.5117 6.58601 16.6446C7.9697 17.7794 9.7921 18.7354 12 18.7354V17.2354ZM4.92646 11.5094C5.7484 10.2202 6.79189 9.08318 8.0111 8.15218L7.10074 6.96002C5.74144 7.998 4.57804 9.26567 3.66165 10.703L4.92646 11.5094ZM4.92368 12.488C4.73279 12.1902 4.73221 11.8141 4.92646 11.5094L3.66165 10.703C3.15719 11.4943 3.15038 12.501 3.6608 13.2974L4.92368 12.488ZM10.5998 6.92461C11.0582 6.81731 11.5275 6.76368 11.9982 6.76479L12.0017 5.26479C11.4147 5.26341 10.8295 5.33029 10.2579 5.46409L10.5998 6.92461ZM12 6.76479C13.754 6.76479 15.2513 7.5215 16.464 8.51645C17.679 9.51326 18.5663 10.7162 19.0773 11.5139L20.3403 10.7046C19.7829 9.83456 18.797 8.49026 17.4154 7.35678C16.0315 6.22144 14.2086 5.26479 12 5.26479V6.76479ZM19.0753 12.4912C18.7623 12.9843 18.4164 13.4563 18.0398 13.9038L19.1876 14.8696C19.6073 14.3708 19.9928 13.8448 20.3417 13.2951L19.0753 12.4912ZM19.0773 11.5139C19.2678 11.8112 19.2687 12.1865 19.0753 12.4912L20.3417 13.2951C20.8436 12.5044 20.8498 11.4998 20.3403 10.7046L19.0773 11.5139ZM13.0373 13.0748C12.6648 13.4746 12.1037 13.6392 11.5742 13.504L11.203 14.9573C12.264 15.2283 13.3883 14.8985 14.1348 14.0974L13.0373 13.0748ZM11.5742 13.504C11.0447 13.3688 10.6312 12.9553 10.496 12.4258L9.04262 12.7969C9.31357 13.8579 10.142 14.6864 11.203 14.9573L11.5742 13.504ZM10.496 12.4258C10.3607 11.8963 10.5253 11.3352 10.9252 10.9626L9.90257 9.8652C9.10144 10.6117 8.77166 11.736 9.04262 12.7969L10.496 12.4258Z" fill="black"/>
<path d="M5 5L19 19" stroke="#121212" stroke-width="1.5" stroke-linecap="round" stroke-linejoin="round"/>
</svg>
